<?xml version="1.0" encoding="UTF-8" standalone="no"?>
<svg
   xmlns:dc="http://purl.org/dc/elements/1.1/"
   xmlns:cc="http://creativecommons.org/ns#"
   xmlns:rdf="http://www.w3.org/1999/02/22-rdf-syntax-ns#"
   xmlns:svg="http://www.w3.org/2000/svg"
   xmlns="http://www.w3.org/2000/svg"
   xmlns:sodipodi="http://sodipodi.sourceforge.net/DTD/sodipodi-0.dtd"
   xmlns:inkscape="http://www.inkscape.org/namespaces/inkscape"
   version="1.1"
   id="Layer_1"
   x="0px"
   y="0px"
   width="732"
   height="732"
   viewBox="0 0 731.99999 732"
   enable-background="new 0 0 1596.869 792"
   xml:space="preserve"
   sodipodi:docname="hope faith love mandala.svg"
   inkscape:version="1.0 (4035a4fb49, 2020-05-01)"><metadata
   id="metadata511"><rdf:RDF><cc:Work
       rdf:about=""><dc:format>image/svg+xml</dc:format><dc:type
         rdf:resource="http://purl.org/dc/dcmitype/StillImage" /><dc:title></dc:title></cc:Work></rdf:RDF></metadata><defs
   id="defs509">
	
	
	
	
	
</defs><sodipodi:namedview
   inkscape:document-rotation="0"
   pagecolor="#ffffff"
   bordercolor="#666666"
   borderopacity="1"
   objecttolerance="10"
   gridtolerance="10"
   guidetolerance="10"
   inkscape:pageopacity="0"
   inkscape:pageshadow="2"
   inkscape:window-width="1920"
   inkscape:window-height="1017"
   id="namedview507"
   showgrid="false"
   inkscape:zoom="0.78647437"
   inkscape:cx="335.57395"
   inkscape:cy="225.65525"
   inkscape:window-x="-8"
   inkscape:window-y="-8"
   inkscape:window-maximized="1"
   inkscape:current-layer="Layer_1" />

<g
   id="g2331"
   transform="translate(-424.47501,-31.766987)"><g
     style="fill:#f8c993;fill-opacity:1"
     transform="translate(388.30326,-10.203425)"
     id="g142">
		<path
   style="fill:#f8c993;fill-opacity:1"
   fill="#ffc222"
   d="m 91.577,475.066 c 0.482,5.6 5.404,8.67 11.401,9.984 1.491,-10.506 6.794,-19.133 10.355,-26.15 -10.608,-0.261 -22.665,5.643 -21.756,16.166 z"
   id="path78" />
		<path
   style="fill:#f8c993;fill-opacity:1"
   fill="#ffc222"
   d="m 105.17,521.996 c -3.129,-8.227 -3.933,-20.371 -3.513,-30.762 -0.256,-0.008 -0.512,-0.014 -0.775,-0.02 -8.929,1.766 -16.451,6.535 -15.909,15.143 0.519,8.135 10.393,17.108 20.197,15.639 z"
   id="path80" />
		<path
   style="fill:#f8c993;fill-opacity:1"
   fill="#ffc222"
   d="m 114.005,352.902 c -6.575,-8.52 -11.196,-18.9 -12.797,-32.153 -19.943,7.283 -10.403,41.563 12.797,32.153 z"
   id="path82" />
		<path
   style="fill:#f8c993;fill-opacity:1"
   fill="#ffc222"
   d="m 110.789,278.654 c 5.155,-9.577 12.143,-17.236 19.624,-24.37 -5.569,-4.844 -15.739,-7.6 -21.691,-2.086 -7.104,6.573 -4.409,21.448 2.067,26.456 z"
   id="path84" />
		<path
   style="fill:#f8c993;fill-opacity:1"
   fill="#ffc222"
   d="m 100.969,314.528 c 0.798,-12.703 3.871,-23.007 7.792,-32.429 -7.055,-0.046 -11.921,-0.173 -15.602,2.72 -9.242,7.275 -1.571,27.285 7.81,29.709 z"
   id="path86" />
		<path
   style="fill:#f8c993;fill-opacity:1"
   fill="#ffc222"
   d="m 123.776,555.076 c -7.419,-8.355 -13.496,-17.98 -17.926,-29.182 -2.774,4.83 -8.121,6.842 -8.864,12.988 -1.39,11.655 14.319,19.561 26.79,16.194 z"
   id="path88" />
		<path
   style="fill:#f8c993;fill-opacity:1"
   fill="#ffc222"
   d="m 159.461,572.268 c -13.926,-1.146 -22.711,-7.188 -31.512,-13.207 -8.736,23.427 25.953,33.945 31.512,13.207 z"
   id="path90" />
		<path
   style="fill:#f8c993;fill-opacity:1"
   fill="#ffc222"
   d="m 332.338,97.335 c -4.482,1.307 -6.329,6.059 -8.04,11.064 10.679,1.702 18.815,5.832 26.14,10.741 1.305,-11.608 -6.82,-25.107 -18.1,-21.805 z"
   id="path92" />
		<path
   style="fill:#f8c993;fill-opacity:1"
   fill="#ffc222"
   d="m 318.506,107.089 c -1.557,-5.854 -2.404,-10.183 -5.886,-13.352 -7.952,-7.23 -22.411,-0.033 -24.704,9.493 -0.484,2.018 0.676,4.93 -0.947,6.96 9.252,-2.162 20.742,-3.851 31.537,-3.101 z"
   id="path94" />
		<path
   style="fill:#f8c993;fill-opacity:1"
   fill="#ffc222"
   d="m 132.7,240.365 c -0.589,4.521 1.301,7.288 2.851,10.551 7.353,-4.88 15.491,-8.938 25.892,-10.625 -3.173,-9.056 -26.997,-13.282 -28.743,0.074 z"
   id="path96" />
		<path
   style="fill:#f8c993;fill-opacity:1"
   fill="#ffc222"
   d="m 283.838,111.282 c -5.336,-3.022 -6.878,-8.022 -12.988,-8.864 -11.019,-1.518 -21.167,16.229 -15.804,26.792 7.764,-7.903 17.74,-13.481 28.792,-17.928 z"
   id="path98" />
		<path
   style="fill:#f8c993;fill-opacity:1"
   fill="#ffc222"
   d="m 237.472,164.893 c 0.899,-14.181 7.071,-22.828 13.201,-31.519 -7.774,-2.328 -14.973,-0.847 -19.498,3.406 -9.104,8.533 -5.159,25.823 6.297,28.113 z"
   id="path100" />
		<path
   style="fill:#f8c993;fill-opacity:1"
   fill="#ffc222"
   d="m 690.313,461.871 c 6.017,8.934 11.377,18.482 12.413,32.15 19.158,-5.421 12.071,-41.378 -12.413,-32.15 z"
   id="path102" />
		<path
   style="fill:#f8c993;fill-opacity:1"
   fill="#ffc222"
   d="m 566.846,649.887 c -1.036,14.035 -6.973,22.932 -13.199,31.512 23.364,9.283 33.956,-25.325 13.199,-31.512 z"
   id="path104" />
		<path
   style="fill:#f8c993;fill-opacity:1"
   fill="#ffc222"
   d="m 549.262,685.955 c -7.909,7.75 -18.018,13.188 -28.791,17.928 5.192,2.762 7.403,8.705 14.146,8.893 10.509,0.295 18.397,-14.453 15.019,-26.428 -0.015,-0.237 -0.045,-0.457 -0.374,-0.393 z"
   id="path106" />
		<path
   style="fill:#f8c993;fill-opacity:1"
   fill="#ffc222"
   d="m 485.812,707.691 c 1.163,5.674 2.141,9.885 5.12,12.941 9.771,10.023 27.822,-2.297 25.635,-16.07 -8.537,2.844 -18.834,3.844 -30.755,3.129 z"
   id="path108" />
		<path
   style="fill:#f8c993;fill-opacity:1"
   fill="#ffc222"
   d="m 671.647,573.248 c 0.131,-3.584 -1.604,-5.643 -2.498,-8.988 -7.927,4.416 -15.957,8.717 -26.282,10.613 3.636,9.26 28.223,13.447 28.78,-1.625 z"
   id="path110" />
		<path
   style="fill:#f8c993;fill-opacity:1"
   fill="#ffc222"
   d="m 702.957,500.242 c -0.033,13.498 -4.009,22.861 -7.408,32.822 10.04,-0.109 17.643,-1.158 19.248,-8.844 1.905,-9.13 -3.869,-21.497 -11.84,-23.978 z"
   id="path112" />
		<path
   style="fill:#f8c993;fill-opacity:1"
   fill="#ffc222"
   d="m 234.485,647.898 c -8.161,4.09 -12.732,25.805 -1.093,28.713 4.139,1.033 9.264,-0.369 11.716,-2.822 -4.785,-7.437 -8.403,-15.998 -10.623,-25.891 z"
   id="path114" />
		<path
   style="fill:#f8c993;fill-opacity:1"
   fill="#ffc222"
   d="m 693.521,536.51 c -5.431,9.428 -12.324,17.311 -20.016,24.361 6.019,4.484 16.655,7.68 22.486,1.33 6.306,-6.855 3.969,-20.627 -2.47,-25.691 z"
   id="path116" />
		<path
   style="fill:#f8c993;fill-opacity:1"
   fill="#ffc222"
   d="m 248.87,678.93 c -2.966,4.211 -5.614,9.422 -5.034,15.025 1.421,13.689 23.917,13.711 29.396,4.605 -9.949,-4.796 -17.221,-12.158 -24.362,-19.63 z"
   id="path118" />
		<path
   style="fill:#f8c993;fill-opacity:1"
   fill="#ffc222"
   d="m 279.769,716.977 c 7.637,8.461 27.59,0.771 29.337,-8.596 -13.162,-0.354 -23.24,-3.648 -32.429,-7.791 0.118,7.349 -0.359,12.562 3.092,16.387 z"
   id="path120" />
		<path
   style="fill:#f8c993;fill-opacity:1"
   fill="#ffc222"
   d="m 347.479,695.736 c -0.016,-0.244 -0.053,-0.465 -0.382,-0.402 -7.764,7.105 -18.229,11.377 -31.385,12.816 6.377,20.563 41.59,10.168 31.767,-12.414 z"
   id="path122" />
		<path
   style="fill:#f8c993;fill-opacity:1"
   fill="#ffc222"
   d="m 473.942,716.719 c 3.192,-1.895 4.35,-5.795 6.068,-9.947 -10.633,-1.885 -18.691,-6.213 -26.532,-10.756 -1.522,12.05 9.554,27.152 20.464,20.703 z"
   id="path124" />
		<path
   style="fill:#f8c993;fill-opacity:1"
   fill="#ffc222"
   d="m 701.341,329.722 c -1.945,10.439 -5.923,18.729 -10.74,26.142 20.421,3.315 30.77,-23.092 10.74,-26.142 z"
   id="path126" />
		<path
   style="fill:#f8c993;fill-opacity:1"
   fill="#ffc222"
   d="m 456.446,119.419 c 8.85,-6.09 18.275,-11.581 32.145,-12.406 -6.224,-20.194 -40.945,-11.546 -32.145,12.406 z"
   id="path128" />
		<path
   style="fill:#f8c993;fill-opacity:1"
   fill="#ffc222"
   d="m 699.148,292.783 c 2.829,8.549 3.843,18.826 3.12,30.755 7.509,-0.762 15.029,-4.044 16.578,-10.854 2.805,-12.334 -10.431,-20.385 -19.698,-19.901 z"
   id="path130" />
		<path
   style="fill:#f8c993;fill-opacity:1"
   fill="#ffc222"
   d="m 697.685,288.859 c 4.004,-3.874 9.623,-7.651 9.669,-14.128 0.088,-10.819 -15.45,-18.386 -26.82,-14.645 6.982,8.39 13.762,16.971 17.151,28.773 z"
   id="path132" />
		<path
   style="fill:#f8c993;fill-opacity:1"
   fill="#ffc222"
   d="m 649.308,235.239 c -2.04,1.872 -3.136,4.473 -4.843,7.263 13.719,1.221 23.667,8.044 31.904,13.21 6.733,-18.43 -15.145,-31.378 -27.061,-20.473 z"
   id="path134" />
		<path
   style="fill:#f8c993;fill-opacity:1"
   fill="#ffc222"
   d="m 524.54,98.189 c -7.604,-8.923 -28.19,-0.681 -29.337,8.596 13.472,-0.059 22.829,3.789 32.431,7.407 -0.546,-6.749 0.109,-12.236 -3.094,-16.003 z"
   id="path136" />
		<path
   style="fill:#f8c993;fill-opacity:1"
   fill="#ffc222"
   d="m 556.013,112.948 c -7.092,-5.421 -20.756,-3.281 -24.943,3.657 9.995,4.632 17.016,12.102 24.379,19.239 5.047,-5.813 7.685,-17.459 0.564,-22.896 z"
   id="path138" />
		<path
   style="fill:#f8c993;fill-opacity:1"
   fill="#ffc222"
   d="m 569.442,166.867 c 8.594,-3.277 13.125,-26.125 0.708,-28.716 -4.823,-1.009 -7.572,1.33 -11.323,2.44 4.521,7.828 8.887,15.796 10.615,26.276 z"
   id="path140" />
	</g><g
     style="fill:#8a407d;fill-opacity:1"
     transform="translate(388.30326,-10.203425)"
     id="g176">
		<path
   style="fill:#8a407d;fill-opacity:1"
   fill="#92278f"
   d="m 504.229,150.115 c -0.264,-0.006 -0.521,-0.013 -0.776,-0.019 -38.863,16.377 -79.994,30.363 -93.84,73.021 8.815,1.97 15.873,5.611 18.309,13.651 11.653,-23.612 28.296,-42.809 52.206,-54.243 3.047,-1.456 9.09,-4.581 11.36,-3.991 1.473,0.385 4.525,5.315 6.031,7.531 13.69,20.201 22.284,55.96 17.67,86.253 7.359,-1.349 13.162,1.805 17.362,4.701 8.283,-13.701 7.015,-35.859 4.067,-54.655 -4.538,-28.939 -19.005,-54.071 -32.389,-72.249 z"
   id="path144" />
		<path
   style="fill:#8a407d;fill-opacity:1"
   fill="#92278f"
   d="m 292.509,153.436 c -0.495,0.144 -0.809,0.478 -0.804,1.147 -6.709,20.303 -19.655,40.032 -22.579,65.069 -2.31,19.757 0.525,38.181 7.657,51.833 4.825,-2.272 15.197,-8.026 22.591,-2.939 -9.304,-24.043 -9.978,-66.249 4.468,-86.482 16.852,1.426 31.283,8.311 43.877,15.834 15,8.969 29.737,19.643 37.992,33.949 4.186,-4.368 9.561,-7.482 16.155,-9.312 -7.487,-21.152 -25.054,-34.315 -42.757,-45.715 -18.129,-11.667 -40.812,-19.708 -66.6,-23.384 z"
   id="path146" />
		<path
   style="fill:#8a407d;fill-opacity:1"
   fill="#92278f"
   d="m 217.688,400.121 c 1.774,-9.02 5.895,-15.575 13.275,-18.703 -23.655,-11.612 -42.46,-28.229 -53.852,-52.198 -1.36,-2.858 -4.541,-8.718 -4.001,-10.969 0.302,-1.295 5.413,-5.007 7.534,-6.421 20.537,-13.726 54.699,-21.667 86.25,-17.287 -1.286,-7.286 1.632,-13.33 4.7,-17.362 -8.193,-5.229 -20.152,-6.769 -32.467,-6.234 -39.433,1.711 -71.504,15.771 -94.463,35.338 16.414,38.823 30.567,79.802 73.024,93.836 z"
   id="path148" />
		<path
   style="fill:#8a407d;fill-opacity:1"
   fill="#92278f"
   d="m 659.645,508.877 c -16.658,-38.713 -30.329,-80.277 -73.414,-93.842 -1.494,9.182 -5.569,15.654 -13.267,18.311 27.149,13.705 48.387,33.023 58.244,63.182 -19.102,17.635 -58.281,29.547 -93.784,23.709 1.111,7.445 -1.78,13.297 -4.709,17.746 23.842,11.865 60.16,5.158 82.422,-3.797 17.042,-6.848 32.737,-14.856 44.508,-25.309 z"
   id="path150" />
		<path
   style="fill:#8a407d;fill-opacity:1"
   fill="#92278f"
   d="m 263.123,510.359 c -19.386,7.518 -49.113,8.791 -71.118,2.133 -4.339,-1.316 -14.489,-3.682 -15.354,-7.371 -0.578,-2.498 1.291,-9.008 2.259,-12.758 1.064,-4.152 2.605,-8.301 3.772,-11.17 9.966,-24.551 25.477,-45.184 44.145,-57.938 -5.045,-3.285 -7.808,-8.744 -9.331,-15.373 -0.017,-0.236 -0.047,-0.465 -0.375,-0.402 -7.421,2.416 -13.94,6.648 -19.306,11.18 -26.123,22.031 -43.953,57.664 -49.819,98.955 17.757,5.721 35.038,16.035 55.018,20.777 21.665,5.143 47.399,3.242 63.442,-5.816 -3.701,-5.025 -7.867,-15.023 -3.333,-22.217 z"
   id="path152" />
		<path
   style="fill:#8a407d;fill-opacity:1"
   fill="#92278f"
   d="m 466.113,215.577 c -4.203,-1.919 -5.364,-5.379 -7.476,-11.832 -9.313,9.596 -18.295,19.541 -24.492,32.403 2.924,-0.797 5.391,1.058 7.753,0.582 2.796,-0.564 4.015,-4.322 7.102,-4.488 -7.792,-8.237 -0.342,-20.171 9.351,-16.855 2.443,0.836 5.027,3.713 4.48,7.102 -0.438,2.723 -5.877,5.366 -7.429,2.146 -0.697,-1.441 1.457,-2.47 0.481,-3.869 -7.247,-1.772 -5.018,8.292 -0.616,9.305 0.991,0.224 2.699,-0.588 3.898,-0.68 17.725,-1.378 25.053,8.99 27.431,21.643 7.083,-0.551 10.303,2.569 14.637,4.632 3.213,-3.551 4.968,-15.532 -3.158,-13.667 -0.277,4.036 3.719,2.49 2.181,6.269 -2.175,5.343 -8.157,-2.693 -8.021,-5.637 0.461,-9.7 15.873,-7.931 17.019,2.754 0.737,6.818 -1.519,8.464 -4.642,15.028 2.114,3.171 2.771,7.722 4.382,11.372 5.065,-16.293 0.229,-35.243 -2.258,-50.154 -1.639,-4.812 -13.188,-8.791 -18.166,-3.553 -1.695,1.788 -2.246,6.772 -0.996,8.903 1.366,2.326 8.014,3.565 8.538,0.21 0.27,-1.688 -8.805,-7.87 -0.966,-8.175 2.809,-0.109 7.601,4.167 6.758,9.486 -0.617,3.914 -5.753,7.746 -12.579,6.288 -10.645,-2.27 -9.359,-17.715 -2.172,-22.187 3.73,-2.321 8.956,-3.197 15.938,-0.767 -2.876,-10.401 -7.392,-19.234 -13.315,-26.734 -0.263,-0.006 -0.521,-0.013 -0.776,-0.019 -5.884,2.454 -23.184,9.937 -24.464,15.7 -3.779,16.979 24.364,9.685 13.2,-0.06 -3.315,0.438 -1.744,3.226 -5.111,2.593 -5.081,-0.965 -0.605,-7.476 2.534,-8.096 6.417,-1.258 10.622,4.313 11.068,7.656 1.406,10.449 -10.997,16.863 -20.114,12.701 z"
   id="path154" />
		<path
   style="fill:#8a407d;fill-opacity:1"
   fill="#92278f"
   d="m 303.135,226.316 c -1.046,-0.339 -2.618,-2.122 -4.978,-2.842 -0.439,15.195 1.819,27.831 4.843,39.731 1.393,-1.048 6.24,-3.342 7.13,-5.648 0.845,-2.193 -0.442,-4.845 0.958,-7.359 -6.455,-1.797 -9.231,-2.698 -10.318,-6.854 -1.404,-5.402 2.524,-10.518 5.723,-11.506 3.602,-1.121 8.051,0.348 8.453,3.697 0.754,6.326 -6.631,6.429 -6.635,1.395 -1.503,0.938 -2.494,2.417 -2.458,4.988 1.503,1.98 3.874,3.135 7.695,2.908 5.781,-11.561 25.258,-18.441 37.866,-8 3.341,-3.256 7.189,-5.988 13.361,-6.27 0.457,-5.777 -7.971,-14.827 -11.475,-7.274 7.268,-0.804 7.457,7.097 0.238,6.221 -8.901,-1.089 -5.71,-12.715 -0.037,-14.375 9.609,-2.804 16.261,8.067 16.693,15.945 4.688,0.721 7.611,3.121 11.142,4.938 -5.769,-11.504 -16.743,-20.29 -27.28,-27.469 -3.355,-2.283 -8.104,-6.551 -11.87,-6.892 -5.867,-0.537 -12.923,4.664 -12.693,10.949 0.272,7.723 12.786,9.257 11.63,0.67 -1.829,-1.176 -5.542,1.046 -6.967,-0.947 -2.332,-3.034 2.171,-5.201 4.402,-5.324 5.498,-0.312 9.556,3.974 8.3,9.91 -2.684,12.67 -23.468,9.323 -22.782,-5.219 0.398,-8.334 5.882,-9.85 10.845,-14.491 -8.646,-3.644 -16.621,-7.927 -28.131,-8.852 -2.596,4.499 -9.571,22.631 -6.92,28.569 1.336,2.981 5.387,5.595 9.984,4.518 5.707,-1.332 9.757,-16.062 -0.835,-13.227 1.098,6.862 -6.698,6.584 -6.221,0.238 0.359,-4.775 5.707,-7.099 9.877,-6.747 15.676,1.319 8.217,30.339 -9.54,24.619 z"
   id="path156" />
		<path
   style="fill:#8a407d;fill-opacity:1"
   fill="#92278f"
   d="m 198.724,350.337 c 8.181,10.652 19.643,18.183 31.607,25.241 0.972,-2.161 -0.013,-6.379 1.368,-8.117 -2.098,-1.804 -3.673,-4.093 -4.881,-6.728 -3.175,1.708 -6.128,3.657 -11.724,2.821 -7.786,-2.434 -6.818,-18.607 2.354,-16.643 2.449,0.53 4.972,4.479 2.154,7.044 -1.906,1.605 -3.411,-1.472 -4.25,-0.881 -1.059,2.23 0.432,4.403 1.809,5.483 2.679,0.194 6.84,-1.383 7.476,-4.087 0.302,-1.288 -0.58,-3.033 -0.67,-4.288 -1.304,-17.867 8.556,-23.938 21.65,-27.432 -0.455,-6.973 2.747,-10.112 4.632,-14.637 -3.664,-3.307 -16.503,-4.016 -13.295,3.553 3.487,-0.199 2.264,-3.462 5.504,-2.584 5.389,1.464 -1.303,9.515 -7.189,7.981 -2.956,-0.778 -4.724,-4.153 -4.469,-7.878 0.766,-11.122 16.618,-10.695 24.179,-4.065 3.011,-2.276 7.583,-2.918 11.37,-4.376 -9.359,-3.286 -19.911,-2.649 -31.425,-1.167 -10.763,1.386 -24.405,1.975 -24.799,13.371 -0.243,7.27 8.731,14.033 13.017,7.696 1.093,-1.617 1.7,-6.578 -1.379,-7.025 -2.759,-0.396 -2.984,5.252 -6.691,3.722 -2.283,-0.947 -1.008,-5.051 -0.238,-6.221 1.05,-1.605 4.193,-3.165 5.522,-3.359 12.547,-1.82 11.128,18.492 1.053,20.223 -13.647,2.333 -18.902,-8.611 -14.998,-21.728 -9.88,3.686 -19.996,7.124 -26.754,14.091 1.398,3.943 3.106,8.029 5.148,11.782 2.698,4.95 6.288,12.386 11.709,13.104 16.626,2.176 6.859,-24.97 -1.227,-13.237 0.466,3.386 3.271,1.583 2.594,5.111 -0.955,4.96 -7.43,0.45 -8.089,-2.527 -1.327,-5.941 3.226,-10.385 6.873,-11.094 10.416,-2.021 16.341,8.591 14.319,17.832 -1.112,5.065 -5.087,7.993 -12.26,9.019 z"
   id="path158" />
		<path
   style="fill:#8a407d;fill-opacity:1"
   fill="#92278f"
   d="m 257.773,506.732 c -0.504,-2.1 -3.464,-4.998 -5.264,-7.121 -3.229,0.176 -5.635,-0.445 -7.727,-1.352 -1.702,6.686 -2.642,9.867 -7.254,10.691 -6.479,1.164 -11.178,-3.748 -11.466,-7.658 -0.261,-3.559 1.182,-6.021 3.658,-6.516 3.527,-0.689 5.987,1.998 5.733,3.637 -0.299,1.986 -2.731,1.576 -3.563,3.023 2.724,5 8.918,0.668 7.515,-5.639 -11.761,-5.23 -18.14,-25.457 -8.011,-37.48 -3.263,-3.336 -5.762,-7.398 -6.27,-13.355 -6.007,-0.646 -14.699,7.996 -7.274,11.469 -0.852,-5.887 5.312,-8.1 6.279,-2.566 0.716,4.113 -2.564,7.547 -5.246,8.031 -5.399,0.963 -9.05,-3.977 -9.543,-6.842 -1.721,-10.152 9.423,-14.576 16.319,-15.908 0.419,-4.598 4.249,-7.734 4.546,-11.145 -10.937,5.533 -19.594,17.43 -27.098,28.066 -2.427,3.436 -6.565,7.861 -6.889,11.477 -0.521,5.811 4.887,12.879 10.95,12.701 6.867,-0.201 10.091,-11.99 1.072,-12.014 -2.332,2.463 1.84,7.086 -2.518,7.707 -3.444,0.49 -4.209,-3.666 -4.125,-5.926 0.155,-4.305 3.061,-7.465 7.178,-7.59 6.335,-0.201 11.426,5.52 10.968,11.916 -0.313,4.322 -5.307,10.25 -10.374,11.008 -10.803,1.619 -12.432,-4.814 -17.201,-10.912 -4.14,8.535 -8.302,17.031 -9.255,28.896 6.389,1.604 16.563,7.379 24.675,7.209 5.436,-0.107 10.408,-5.752 8.059,-11.84 -2.068,-5.332 -16.619,-7.699 -12.864,2.018 7.968,-0.957 5.8,6.402 0.622,6.225 -4.958,-0.164 -7.462,-5.76 -7.139,-9.881 0.395,-5.045 5.962,-9.123 11.101,-9.045 10.233,0.154 19.092,12.771 10.674,23.559 15.059,0.294 27.638,-2.016 39.732,-4.843 z"
   id="path160" />
		<path
   style="fill:#8a407d;fill-opacity:1"
   fill="#92278f"
   d="m 546.143,308.423 c 1.514,2.472 3.492,4.514 5.275,6.729 3.159,0.029 5.475,0.854 8.118,1.368 -0.252,-12.906 15.7,-13.068 18.356,-4.21 1.112,3.694 -0.747,7.785 -4.086,8.059 -6.12,0.504 -6.761,-7.052 -1.007,-6.241 -2.783,-6.305 -9.891,-0.471 -7.886,4.854 0.615,1.624 3.188,2.342 4.948,4.002 8.299,7.873 12.142,23.003 2.68,33.079 3.103,3.871 6.181,7.762 6.643,14.139 5.482,0.548 15.771,-9.864 6.883,-11.478 1.563,7.044 -7.342,7.564 -5.81,-0.528 1.597,-8.468 14.03,-4.865 14.691,2.691 0.848,9.725 -8.547,13.117 -16.291,14.741 -1.119,4.401 -2.995,8.007 -5.321,11.131 11.394,-4.752 20.042,-16.813 27.069,-26.906 2.303,-3.296 6.59,-7.719 7.266,-11.084 1.411,-7.013 -4.304,-14.01 -10.53,-13.85 -6.668,0.169 -10.159,10.691 -1.465,12.002 3.007,-1.791 -1.9,-8.042 3.304,-8.069 1.724,-0.015 2.973,1.596 3.398,3.963 0.802,4.442 -2.059,8.97 -5.283,9.58 -7.868,1.494 -13.102,-5.157 -12.521,-11.963 0.418,-4.802 4.984,-9.552 9.582,-10.635 7.668,-1.797 14.564,3.806 17.983,10.931 3.932,-8.745 8.121,-17.221 9.257,-28.897 -6.216,-1.456 -22.882,-10.994 -30.151,-5.791 -8.804,6.304 2.417,20.669 10.558,13.075 -0.105,-1.541 0.447,-3.712 -0.277,-4.67 -8.001,0.494 -6.318,-7.083 0.153,-6.204 6.903,0.932 7.464,11.703 3.502,15.614 -10.895,10.766 -31.066,-8.455 -18.922,-20.265 -15.406,-0.531 -28.051,1.841 -40.116,4.833 z"
   id="path162" />
		<path
   style="fill:#8a407d;fill-opacity:1"
   fill="#92278f"
   d="m 541.577,304.815 c 17.061,-7.312 45.933,-8.885 66.87,-3.399 4.479,1.171 17.466,3.999 18.836,7.841 0.768,2.141 -0.894,8.57 -1.856,12.385 -7.849,30.981 -27.639,54.357 -47.553,70.277 5.123,3.201 6.982,9.518 9.323,15.372 16.056,-5.57 26.167,-16.562 36.057,-29.011 16.708,-21.032 28.503,-48.364 33.06,-80.73 -25.102,-9.291 -49.69,-24.364 -83.694,-23.422 -14.383,0.399 -24.413,2.907 -34.756,8.07 3.871,5.555 7.047,15.594 3.713,22.617 z"
   id="path164" />
		<path
   style="fill:#8a407d;fill-opacity:1"
   fill="#92278f"
   d="m 344.905,611.016 c 10.545,-8.434 18.405,-19.686 25.252,-31.998 -3.143,0.088 -5.897,-0.195 -8.129,-0.977 -2.072,1.801 -4.111,3.643 -6.72,4.881 2.236,4.021 4.234,7.596 2.815,11.719 -2.701,7.848 -19.101,6.627 -16.628,-2.74 0.566,-2.143 2.586,-2.926 5.516,-3.357 0.565,0.725 1.599,1.006 1.895,1.988 0.952,2.133 -2.534,3.164 -0.862,3.475 5.815,2.941 6.164,-7.152 1.771,-8.891 -18.474,3.117 -30.197,-5.893 -32.104,-20.982 -6.737,0.098 -10.791,-2.359 -14.627,-5.023 -3.763,3.359 -4.47,16.699 3.151,13.668 0.351,-2.982 -2.87,-2.568 -2.577,-5.496 3.109,-5.084 9.647,1.164 7.975,7.189 -0.656,2.375 -3.613,3.91 -4.759,4.152 -13.239,2.785 -14.823,-16.711 -7.178,-23.869 -2.177,-3.236 -2.983,-7.77 -4.373,-11.756 -3.763,10.238 -2.209,24.949 -0.479,35.328 0.997,6.006 1.212,11.713 2.728,15.211 3.915,9.01 25.521,6.154 19.163,-5.35 -0.62,-1.121 -7.96,-5.154 -8.538,-0.211 -0.224,1.859 7.91,6.012 2.135,7.82 -3.688,1.154 -7.524,-3.24 -7.984,-6.805 -0.826,-6.334 5.47,-9.32 10.319,-9.064 8.24,0.438 11.788,8.713 9.697,16.166 -1.951,6.93 -9.701,9.955 -21.547,7.619 4.131,9.465 7.139,19.982 14.492,26.379 4.541,-1.945 8.604,-3.867 13.372,-6.66 3.734,-2.195 10.192,-5.082 11.104,-9.439 2.492,-11.863 -15.36,-14.303 -16.253,-2.342 3.246,5.76 4.983,-1.416 8.929,0.221 4.313,1.791 -1.386,7.717 -4.086,8.057 -7.355,0.922 -11.748,-5.717 -10.173,-12.682 2.482,-10.911 26.966,-13.852 26.703,3.769 z"
   id="path166" />
		<path
   style="fill:#8a407d;fill-opacity:1"
   fill="#92278f"
   d="m 495.372,587.93 c 5.632,-0.564 6.107,1.846 10.779,3.762 0.19,-14.063 -1.746,-31.398 -5.61,-40.135 -1.459,2.584 -4.827,3.162 -6.354,5.666 0.256,3.189 -0.598,5.211 -0.967,7.744 14.484,-0.746 11.965,19.176 1.475,18.674 -2.402,-0.115 -4.792,-1.1 -5.342,-3.627 -1.433,-6.578 6.265,-7.484 6.652,-2.164 5.408,-3.041 -0.114,-9.471 -5.638,-7.514 -5.36,11.82 -25.819,18.094 -37.465,7.619 -3.196,3.41 -7.008,6.176 -13.36,6.27 -0.654,6.271 7.892,14.867 11.458,7.658 -2.737,-1.889 -5.526,0.348 -5.744,-3.244 -0.141,-2.361 3.361,-3.756 6.672,-2.947 1.911,0.473 4.262,3.314 4.546,4.773 1.164,5.932 -4.219,9.686 -8.012,9.898 -9.831,0.555 -12.893,-8.697 -14.356,-16.271 -4.634,-0.328 -8.784,-4.945 -11.535,-4.557 6.144,10.104 16.864,19.73 26.916,26.678 3.142,2.178 8.479,6.311 11.477,6.891 6.773,1.299 13.952,-4.541 13.851,-10.537 -0.104,-6.439 -11.314,-10.59 -12.011,-1.072 2.272,2.213 6.791,-2.041 7.713,2.133 0.552,2.492 -2.067,3.887 -3.599,4.184 -5.144,1.004 -8.871,-2.254 -9.583,-4.9 -2.028,-7.504 4.829,-13.898 12.357,-12.895 13.234,1.758 13.419,23.113 -0.68,27.557 8.53,4.006 17.118,7.955 28.505,9.246 1.795,-5.742 10.675,-21.984 6.548,-29.355 -5.59,-9.998 -21.539,1.021 -13.439,9.764 1.686,0.049 3.482,0.215 4.662,-0.268 -1.521,-7.016 6.551,-6.986 6.231,-0.623 -0.367,7.367 -10.972,8.08 -14.884,5.064 -8.341,-6.422 -1.961,-22.398 8.737,-23.472 z"
   id="path168" />
		<path
   style="fill:#8a407d;fill-opacity:1"
   fill="#92278f"
   d="m 605.594,464.445 c -7.912,-9.395 -19.57,-18.518 -32.007,-24.869 -0.022,2.896 0.005,5.846 -0.968,7.744 2.026,2.115 3.484,4.764 5.265,7.121 3.599,-2.779 6.577,-3.775 9.782,-3.254 9.049,1.469 9.077,18.471 -0.421,17.076 -2.979,-0.438 -5.273,-5.256 -2.93,-7.064 1.829,-1.406 2.479,0.254 4.651,0.506 1.502,-7.494 -7.873,-5.248 -9.276,-1.787 3.21,18.547 -6.148,29.949 -20.989,32.102 0.108,6.611 -2.151,10.748 -5.007,14.244 3.064,4.178 16.514,4.766 13.659,-2.768 -3.335,-0.43 -2.479,3.5 -5.878,2.184 -4.612,-1.781 1.326,-8.725 6.405,-7.992 4.385,0.627 6.074,4.869 5.177,10.613 -2.802,8.852 -18.11,6.93 -23.728,1.742 -3.285,2.119 -8.007,2.744 -11.763,4.367 15.51,3.863 38.069,1.395 50.939,-2.625 5.79,-1.807 7.336,-15.416 2.011,-18.588 -6.897,-4.115 -13.99,4.068 -7.973,8.348 3.357,-0.217 1.899,-5.172 5.925,-4.125 4.768,1.232 0.361,7.846 -2.947,9.244 -7.67,3.256 -12.664,-5.836 -10.559,-12.689 0.836,-2.721 3.602,-5.18 5.59,-6.07 10.828,-4.887 23.11,5.703 17.354,20.617 10.185,-3.365 20.101,-7.014 26.753,-14.098 -3.587,-6.402 -6.808,-17.547 -12.262,-22.438 -0.786,-0.701 -2.617,-1.83 -3.445,-2.027 -17.78,-4.176 -8.447,25.529 -0.316,12.807 -0.368,-2.941 -3.603,-2.031 -2.192,-5.486 1.88,-4.623 7.75,1.303 8.051,4.08 0.523,4.795 -3.269,9.018 -6.459,9.936 -17.339,5.03 -21.46,-27.058 -2.442,-26.851 z"
   id="path170" />
		<path
   style="fill:#8a407d;fill-opacity:1"
   fill="#92278f"
   d="m 300.079,665.049 c 39.338,-16.266 80.674,-30.445 94.619,-73.387 -9.35,-1.328 -15.289,-5.91 -18.705,-12.893 -13.566,27.025 -33.053,47.832 -62.79,57.871 -18.074,-19.664 -29.335,-57.822 -24.091,-93.797 -7.347,1.131 -12.932,-1.869 -17.355,-4.697 -8.127,12.592 -7.37,35.863 -4.439,53.869 4.741,29.106 19.481,55.229 32.761,73.034 z"
   id="path172" />
		<path
   style="fill:#8a407d;fill-opacity:1"
   fill="#92278f"
   d="m 512.19,661.738 c 5.526,-17.668 16.076,-34.922 20.762,-54.627 5.132,-21.58 3.388,-47.26 -5.426,-63.432 -0.016,-0.236 -0.045,-0.465 -0.374,-0.4 -0.016,-0.236 -0.046,-0.459 -0.382,-0.395 -4.526,4.508 -14.646,7.797 -21.836,3.732 3.713,11.994 7.485,28.457 7.057,44.441 -0.278,10.402 -2.457,18.5 -4.931,26.676 -1.768,5.83 -3.11,12.354 -7.37,15.346 -37.532,-6.969 -63.026,-25.396 -81.866,-50.168 -3.219,5.24 -9.11,7.678 -15.757,9.316 5.771,17.35 18.375,27.707 31.674,38.064 20.573,16.01 46.873,26.889 78.449,31.447 z"
   id="path174" />
	</g><g
     style="fill:#e78a95;fill-opacity:1"
     transform="translate(388.30326,-10.203425)"
     id="g194">
		<path
   style="fill:#e78a95;fill-opacity:1"
   fill="#f48b9d"
   d="m 157.068,464.643 c 4.982,-11.76 13.075,-22.367 19.038,-31.766 -9.176,6.039 -30.918,19.867 -39.35,5.244 -11.223,4.129 -22.784,-2.207 -26.15,-10.355 -19.593,-3.133 -21.099,-38.496 -1.291,-42.358 1.541,-8.74 9.062,-11.189 17.027,-13.171 0.571,-6.08 5.651,-8.588 10.71,-9.055 14,-1.299 28.285,9.276 36.585,12.166 -8.801,-9.429 -14.3,-22.017 -20.521,-33.904 -18.32,2.966 -35.198,17.585 -47.715,29.501 -13.611,12.963 -26.354,26.168 -37.093,39.858 4.156,6.139 10.462,11.107 16.292,16.32 17.052,15.264 36.832,31.066 61.979,37.645 3.338,0.873 6.89,0.619 10.489,-0.125 z"
   id="path178" />
		<path
   style="fill:#e78a95;fill-opacity:1"
   fill="#f48b9d"
   d="m 244.085,636.486 c 10.624,-4.08 20.523,-7.068 25.242,-15.688 -4.251,-10.35 -6.964,-22.172 -8.453,-35.158 -4.876,11.826 -7.011,35.461 -24.437,30.467 -3.416,8.58 -13.648,15.604 -25.146,11.803 -18.571,9.658 -41.7,-8.283 -31.902,-29.137 -4.92,-5.459 -1.16,-16.709 2.843,-20.896 -5.832,-7.441 1.397,-15.328 6.69,-19.25 7.817,-5.793 20.637,-9.115 28.648,-12.107 -14.658,-1.465 -26.43,-5.67 -38.201,-9.877 -16.834,23.527 -14.44,75.414 -10.472,109.637 27.079,0.495 54.991,-2.018 75.188,-9.794 z"
   id="path180" />
		<path
   style="fill:#e78a95;fill-opacity:1"
   fill="#f48b9d"
   d="m 345.087,162.884 c 12.073,4.428 22.227,12.701 31.386,18.637 -5.621,-8.81 -19.758,-31.984 -4.861,-39.341 -4.152,-10.305 1.395,-22.776 9.956,-25.769 3.938,-19.987 38.069,-21.772 42.757,-1.665 8.44,1.568 11.136,8.605 12.796,16.626 5.383,0.83 8.497,5.05 9.084,9.543 1.891,14.563 -8.033,28.963 -12.194,37.752 6.992,-5.195 15.807,-11.03 25.24,-15.681 2.602,-1.289 8.422,-2.847 9.054,-4.832 0.873,-2.748 -3.371,-11.339 -4.699,-14.091 -2.283,-4.712 -5.235,-8.537 -7.476,-11.838 -15.731,-23.135 -37.794,-42.517 -57.975,-58.514 -16.045,16.064 -33.865,34.576 -44.911,57.535 -4.413,9.17 -11.067,20.93 -8.157,31.638 z"
   id="path182" />
		<path
   style="fill:#e78a95;fill-opacity:1"
   fill="#f48b9d"
   d="m 181.707,268.756 c 1.447,1.943 4.743,5.414 7.237,5.611 1.94,0.155 5.516,-1.659 8.221,-2.51 2.957,-0.944 6.027,-1.901 8.604,-2.507 6.582,-1.553 12.488,-1.728 18.342,-3.819 -14.167,-3.773 -33.779,-6.137 -30.87,-23.672 -8.553,-3.906 -15.029,-13.256 -11.784,-25.92 -8.607,-19.035 8.111,-39.91 29.127,-31.518 6.522,-4.389 16.807,-0.54 21.662,3.254 2.794,-3.612 9.28,-2.142 12.433,-0.078 9.843,6.438 14.321,24.659 18.541,35.407 1.229,-14.9 5.546,-26.561 9.871,-38.201 -23.613,-16.83 -75.721,-14.513 -110.021,-10.482 -0.123,26.054 2.32,54.89 9.803,74.796 2.772,7.386 5.223,14.773 8.834,19.639 z"
   id="path184" />
		<path
   style="fill:#e78a95;fill-opacity:1"
   fill="#f48b9d"
   d="m 616.149,540.426 c -0.263,-0.006 -0.519,-0.012 -0.782,-0.02 -10.353,4.387 -23.003,6.359 -35.167,8.844 12.498,3.848 35.179,6.818 30.484,23.662 8.551,3.748 15.776,13.93 11.784,25.92 9.555,18.74 -8.51,40.84 -29.118,31.512 -5.851,4.789 -16.86,0.604 -21.288,-2.854 -2.646,2.775 -7.616,2.539 -10.901,0.898 -11.076,-5.549 -15.701,-24.957 -20.072,-36.227 -1.417,14.709 -5.741,26.357 -9.877,38.199 24.106,16.693 74.857,14.215 109.643,10.473 0.438,-17.451 -0.724,-35.57 -3.387,-51.727 -3.084,-18.749 -9.843,-39.106 -21.319,-48.68 z"
   id="path186" />
		<path
   style="fill:#e78a95;fill-opacity:1"
   fill="#f48b9d"
   d="m 450.636,685.467 c 4.819,-9.822 10.394,-21.082 8.585,-33.188 -11.945,-4.922 -21.755,-11.885 -31.375,-19.027 5.219,9.227 19.81,31.893 4.853,39.34 4.219,11.375 -2.247,22.699 -9.974,26.553 -6.098,19.754 -37.596,20.971 -42.748,1.273 -8.599,-1.795 -11.321,-9.18 -13.161,-17.412 -6.527,-0.047 -8.701,-5.98 -9.045,-11.094 -0.902,-13.387 9.117,-27.891 12.145,-35.818 -9.654,8.705 -22.196,14.369 -34.287,20.514 5.718,19.611 16.165,34.223 29.5,47.715 9.537,9.654 19.325,19.221 29.979,28.313 2.601,2.223 8.238,8.598 11.055,8.426 1.875,-0.111 6.334,-5.711 8.348,-7.947 13.519,-14.982 27.038,-29.121 36.125,-47.648 z"
   id="path188" />
		<path
   style="fill:#e78a95;fill-opacity:1"
   fill="#f48b9d"
   d="m 718.033,424.5 c 6.406,-6.59 13.3,-13.055 17.611,-21.314 -16.115,-15.718 -34.373,-33.717 -57.152,-44.51 -9.119,-4.326 -20.856,-11.059 -31.252,-8.153 -5.284,11.31 -12.93,22.256 -19.029,31.375 8.671,-5.431 31.401,-20.084 38.565,-4.872 10.728,-4.292 23.362,1.323 26.552,9.974 19.791,4.042 21.708,38.339 1.667,42.366 -1.567,8.703 -8.734,11.531 -17.02,13.178 -0.555,1.404 -0.651,3.295 -1.282,4.625 -11.916,11.48 -35.576,-1.975 -45.238,-7.717 -0.573,1.303 1.084,2.541 1.85,3.541 1,1.285 2.072,2.615 3.014,3.955 5.838,8.359 10.153,18.426 15.259,26.783 29.671,-8.026 47.791,-30.034 66.455,-49.231 z"
   id="path190" />
		<path
   style="fill:#e78a95;fill-opacity:1"
   fill="#f48b9d"
   d="m 535,193.59 c 4.104,10.873 6.502,23.37 8.818,35.943 3.84,-13.069 7.194,-35.32 24.063,-30.86 3.594,-8.875 13.299,-14.978 25.92,-11.791 18.822,-8.919 40.25,8.767 31.137,28.733 4.606,6.329 0.811,17.341 -2.88,22.063 2.886,2.449 2.545,7.68 0.898,10.894 -5.647,11.038 -25.086,15.521 -36.22,20.079 14.928,1.194 26.525,5.575 38.201,9.871 16.734,-24.113 14.265,-75.235 10.48,-110.027 -22.098,0.573 -43.62,0.896 -61.881,5.465 -15.213,3.803 -29.628,9.207 -38.536,19.63 z"
   id="path192" />
	</g><g
     transform="translate(388.30326,-10.203425)"
     id="g416">
		<g
   style="fill:#dd608c;fill-opacity:1"
   id="g322">
			<path
   style="fill:#dd608c;fill-opacity:1"
   fill="#ec008c"
   d="m 501.079,372.162 c 8.033,-0.336 14.596,3.713 16.837,10.125 4.759,-6.176 13.494,-17.145 14.664,-27.603 0.776,-6.972 -3.474,-9.278 -9.457,-10.329 1.059,16.558 -12.3,21.277 -22.044,27.807 z"
   id="path196" />
			<path
   style="fill:#dd608c;fill-opacity:1"
   fill="#ec008c"
   d="m 364.315,532.662 c 6.756,1.482 15.289,-7.617 18.139,-11.199 10.22,-12.855 15.255,-36.281 10.73,-57.211 -0.016,-0.236 -0.045,-0.465 -0.382,-0.402 -10.083,13.928 -28.592,26.869 -32.64,48.127 -1.333,7 -1.603,19.423 4.153,20.685 z"
   id="path198" />
			<path
   style="fill:#dd608c;fill-opacity:1"
   fill="#ec008c"
   d="m 454.157,353.918 c 5.909,-9.231 13.605,-19.941 13.201,-31.52 -0.181,-5.123 -2.728,-9.821 -7.122,-10.271 -6.25,-0.646 -9.847,5.46 -12.291,10.184 -8.372,16.188 -7.16,39.485 -14.942,54.771 0.025,0.435 -0.584,0.591 -0.019,0.775 6.295,-6.395 14.887,-14.128 21.173,-23.939 z"
   id="path200" />
			<path
   style="fill:#dd608c;fill-opacity:1"
   fill="#ec008c"
   d="m 414.473,404.199 c 15.688,-3.039 31.918,-4.725 45.314,-10.922 2.08,-0.967 11.069,-5.75 11.073,-8.271 0.007,-2.818 -6.145,-4.85 -9.58,-5.283 -16.891,-2.153 -28.653,10.307 -38.089,17.314 -3.357,2.488 -7.449,3.859 -8.718,7.162 z"
   id="path202" />
			<path
   style="fill:#dd608c;fill-opacity:1"
   fill="#ec008c"
   d="m 395.865,418.498 c -2.931,4.27 -5.865,8.334 -8.854,12.596 -2.812,4.012 -5.179,7.91 -7.679,12.234 -4.766,8.234 -11.057,17.127 -9.646,28.887 22.188,-0.449 23.859,-32.359 26.555,-53.324 -0.017,-0.237 -0.046,-0.455 -0.376,-0.393 z"
   id="path204" />
			<path
   style="fill:#dd608c;fill-opacity:1"
   fill="#ec008c"
   d="m 385.988,299.425 c -1.29,-0.83 -4.644,-2.222 -6.548,-2.105 -12.599,0.771 -4.504,20.983 -1.063,27.155 7.645,13.688 19.229,26.012 24.629,40.605 0.194,-23.112 -2.777,-56.505 -17.018,-65.655 z"
   id="path206" />
			<path
   style="fill:#dd608c;fill-opacity:1"
   fill="#ec008c"
   d="m 387.845,349.955 c -0.92,-1.966 -5.533,-11.108 -8.27,-11.083 -3.211,0.035 -5.029,7.337 -5.274,9.189 -2.511,19.253 16.915,36.954 24.456,47.591 -2.86,-15.99 -4.57,-32.278 -10.912,-45.697 z"
   id="path208" />
			<path
   style="fill:#dd608c;fill-opacity:1"
   fill="#ec008c"
   d="m 425.653,517.479 c 7.916,-1.156 6.266,-13.266 3.972,-19.322 -6.495,-17.176 -22.23,-29.816 -27.948,-47.676 -0.016,-0.236 -0.045,-0.459 -0.374,-0.395 -0.519,21.238 1.849,43.908 10.604,58.119 2.333,3.797 7.2,10.231 13.746,9.274 z"
   id="path210" />
			<path
   style="fill:#dd608c;fill-opacity:1"
   fill="#ec008c"
   d="m 471.616,338.814 c 10.547,-12.576 25.677,-31.603 30.402,-52.062 3.162,-13.655 -0.384,-30.645 -15.173,-30.276 -9.609,0.241 -15.5,8.745 -16.349,17.459 -1.535,15.81 5.018,34.995 3.38,51.735 -0.457,4.709 -2.231,8.517 -2.26,13.144 z"
   id="path212" />
			<path
   style="fill:#dd608c;fill-opacity:1"
   fill="#ec008c"
   d="m 461.375,234.491 c -3.74,0.092 -14.41,2.605 -14.51,5.465 -0.011,0.45 4.091,3.896 5.283,6.347 3.504,7.184 3.106,17.512 -1.341,22.876 8.089,0.007 10.234,5.67 13.735,10.049 -0.073,-15.202 6.557,-23.375 16.608,-27.939 -1.603,-9.402 -8.889,-17.071 -19.775,-16.798 z"
   id="path214" />
			<path
   style="fill:#dd608c;fill-opacity:1"
   fill="#ec008c"
   d="m 498.361,340.642 c -20.53,1.366 -35.628,15.403 -45.734,27.996 -1.358,1.69 -4.076,3.282 -3.638,5.735 8.887,-2.38 19.989,-0.796 30.727,-1.961 13.947,-1.514 27.979,-8.943 34.582,-16.625 1.627,-1.882 3.738,-5.483 3.686,-7.669 -0.149,-6.128 -12.726,-7.94 -19.623,-7.476 z"
   id="path216" />
			<path
   style="fill:#dd608c;fill-opacity:1"
   fill="#ec008c"
   d="m 509.109,392.942 c 6.059,-7.476 1.916,-15.559 -8.184,-14.568 -21.345,2.078 -37.592,24.908 -56.656,30.056 12.565,0.26 25.34,-0.096 36.96,-2.977 11.066,-2.738 22.572,-5.957 27.88,-12.511 z"
   id="path218" />
			<path
   style="fill:#dd608c;fill-opacity:1"
   fill="#ec008c"
   d="m 518.184,450.248 c 14.824,-1.242 7.195,-14.055 1.273,-20.158 -12.622,-13.014 -39.008,-18.178 -60.628,-13.926 0.756,2.539 3.738,3.523 5.697,5.188 13.13,11.138 28.339,31.013 53.658,28.896 z"
   id="path220" />
			<path
   style="fill:#dd608c;fill-opacity:1"
   fill="#ec008c"
   d="m 413.471,413.102 c -0.031,0.67 0.272,1.002 0.753,1.186 15.276,10.473 29.24,24.209 52.166,26.141 1.547,-3.215 0.011,-6.777 -1.33,-8.967 -8.543,-13.853 -31.754,-15.579 -51.589,-18.36 z"
   id="path222" />
			<path
   style="fill:#dd608c;fill-opacity:1"
   fill="#ec008c"
   d="m 285.35,364.897 c -11.788,1.104 -8.387,10.678 -3.139,17.009 12.278,14.819 37.908,21.752 63.278,16.703 -12.917,-10.279 -26.222,-28.811 -47.733,-33.016 -3.506,-0.69 -8.182,-1.091 -12.406,-0.696 z"
   id="path224" />
			<path
   style="fill:#dd608c;fill-opacity:1"
   fill="#ec008c"
   d="m 338.319,374.362 c -0.894,-0.144 -0.461,1.106 -1.196,1.13 3.198,22.476 31.125,23.429 54.119,25.804 -16.189,-10.358 -28.909,-24.028 -52.923,-26.934 z"
   id="path226" />
			<path
   style="fill:#dd608c;fill-opacity:1"
   fill="#ec008c"
   d="m 353.722,521.137 c 0.063,-6.881 2.159,-13.951 3.188,-18.951 -3.123,4.836 -11.292,8.408 -18.762,4.977 0.988,13.658 6.713,41.578 22.926,30.859 -4.688,-3.399 -7.418,-9.012 -7.352,-16.885 z"
   id="path228" />
			<path
   style="fill:#dd608c;fill-opacity:1"
   fill="#ec008c"
   d="m 338.934,286.225 c 15.263,-1.076 21.878,12.145 27.797,22.428 0.088,-9.061 3.708,-14.417 10.126,-16.835 -5.555,-4.267 -16.307,-13.438 -26.437,-14.628 -7.745,-0.91 -10.462,2.739 -11.486,9.035 z"
   id="path230" />
			<path
   style="fill:#dd608c;fill-opacity:1"
   fill="#ec008c"
   d="m 368.932,361.135 c -1.567,-6.339 -1.168,-14.445 -1.407,-21.785 -0.578,-18.111 -6.463,-33.805 -16.022,-43.111 -1.474,-1.431 -4.167,-3.349 -6.499,-4.041 -7.931,-2.345 -10.009,9.479 -9.755,17.622 0.751,23.747 17.975,40.483 33.683,51.315 z"
   id="path232" />
			<path
   style="fill:#dd608c;fill-opacity:1"
   fill="#ec008c"
   d="m 291.898,429.908 c 0.275,7.297 9.579,7.934 16.157,6.223 17.541,-4.551 34.497,-24.387 51.21,-29.414 -20.829,-1.027 -52.992,3.227 -63.663,14.74 -1.667,1.803 -3.79,6.15 -3.704,8.451 z"
   id="path234" />
			<path
   style="fill:#dd608c;fill-opacity:1"
   fill="#ec008c"
   d="m 344.131,421.877 c -2.42,1.145 -10.753,5.914 -10.684,8.281 0.103,3.611 8.53,5.428 13.457,5.377 18.317,-0.172 30.937,-16.549 43.323,-24.559 -13.841,2.059 -33.381,4.901 -46.096,10.901 z"
   id="path236" />
			<path
   style="fill:#dd608c;fill-opacity:1"
   fill="#ec008c"
   d="m 350.161,460.863 c -5.853,8.924 -12.225,19.076 -13.134,28.801 -0.667,7.109 2.007,13.334 7.821,13.391 5.032,0.055 9.66,-5.996 11.916,-10.576 8.028,-16.354 6.597,-39.102 14.157,-54.406 -0.016,-0.234 -0.053,-0.463 -0.382,-0.4 -6.037,6.372 -14.083,13.583 -20.378,23.19 z"
   id="path238" />
			<path
   style="fill:#dd608c;fill-opacity:1"
   fill="#ec008c"
   d="m 447.399,312.978 c 2.77,-5.733 12.369,-8.131 18.771,-5.367 -1.243,-13.095 -6.784,-41.553 -22.936,-30.468 10.207,4.809 6.86,25.921 4.165,35.835 z"
   id="path240" />
			<path
   style="fill:#dd608c;fill-opacity:1"
   fill="#ec008c"
   d="m 308.867,356.157 c 11.728,14.365 45.343,10.972 62.8,20.188 -5.013,-6.026 -12.66,-13.739 -21.649,-19.949 -8.609,-5.951 -19.356,-12.779 -29.166,-13.925 -10.563,-1.229 -18.405,5.824 -11.985,13.686 z"
   id="path242" />
			<path
   style="fill:#dd608c;fill-opacity:1"
   fill="#ec008c"
   d="m 300.883,538.088 c -0.024,8.785 4.557,18.486 12.319,20.111 12.473,2.598 19.533,-7.979 20.628,-17.746 2.171,-19.332 -9.458,-44.566 -0.756,-63.701 -0.015,-0.244 -0.045,-0.463 -0.382,-0.4 -7.289,7.465 -13.822,16.289 -20.092,27.461 -5.614,10.013 -11.688,21.882 -11.717,34.275 z"
   id="path244" />
			<path
   style="fill:#dd608c;fill-opacity:1"
   fill="#ec008c"
   d="m 355.195,272.645 c -6.559,-6.613 -13.46,-19.448 -7.388,-31.245 -13.464,-10.1 -31.496,-0.014 -32.622,15.891 13.258,0.519 21.04,6.25 22.866,17.651 3.552,-3.089 11.049,-4.263 17.144,-2.297 z"
   id="path246" />
			<path
   style="fill:#dd608c;fill-opacity:1"
   fill="#ec008c"
   d="m 307.507,474.178 c 19.26,-1.512 37.72,-17.068 46.578,-30.697 1.65,-2.537 1.887,-2.039 -0.326,-2.336 -3.576,-0.479 -7.279,0.711 -10.509,0.902 -18.831,1.131 -30.528,1.113 -43.332,9.033 -4.208,2.602 -14.087,10.047 -13.593,15.975 0.538,6.5 12.944,7.765 21.182,7.123 z"
   id="path248" />
			<path
   style="fill:#dd608c;fill-opacity:1"
   fill="#ec008c"
   d="m 275.549,399.994 c 6.345,0.508 12.571,0.049 18.634,0.461 -9.28,-7.084 -18.851,-16.775 -26.149,-26.275 -2.745,-3.578 -4.666,-7.69 -7.513,-10.281 -8.517,-7.741 -25.538,-0.544 -24.36,11.438 1.469,14.91 20.226,23.118 39.388,24.657 z"
   id="path250" />
			<path
   style="fill:#dd608c;fill-opacity:1"
   fill="#ec008c"
   d="m 246.632,328.608 c -4.563,0.891 -9.533,2.591 -12.166,5.132 -7.402,7.15 -6.789,19.489 -0.317,28.733 5.268,-6.605 21.336,-10.608 29.598,-3.542 0.133,-7.964 5.415,-10.51 10.05,-13.734 -12.898,-0.388 -24.25,-5.447 -27.165,-16.589 z"
   id="path252" />
			<path
   style="fill:#dd608c;fill-opacity:1"
   fill="#ec008c"
   d="m 357.042,575.59 c -6.425,-5.377 -10.709,-21.336 -3.542,-29.605 -8.084,-0.135 -10.051,-6.098 -14.119,-10.059 0.256,15.008 -5.768,23.408 -16.204,27.174 -0.12,15.838 21.995,22.357 33.865,12.49 z"
   id="path254" />
			<path
   style="fill:#dd608c;fill-opacity:1"
   fill="#ec008c"
   d="m 581.002,406.754 c -0.964,-7.934 -6.691,-12.111 -14.049,-13.161 -10.143,7.659 -23.559,11.877 -36.899,16.176 13.846,0.875 24.097,4.359 31.961,10.883 2.343,1.938 5.532,6.338 7.599,6.787 8.54,1.864 12.435,-12.037 11.388,-20.685 z"
   id="path256" />
			<path
   style="fill:#dd608c;fill-opacity:1"
   fill="#ec008c"
   d="m 452.761,567.85 c 2.102,-7.873 -2.187,-14.998 -5.743,-19.164 -6.352,-7.455 -15.737,-12.848 -24.37,-19.633 -9.029,-7.1 -16.004,-15.602 -20.771,-23.814 -0.122,13.332 2.601,25.908 6.45,37.828 3.804,11.783 8.055,22.119 14.827,28.715 9.287,9.058 26.076,9.286 29.607,-3.932 z"
   id="path258" />
			<path
   style="fill:#dd608c;fill-opacity:1"
   fill="#ec008c"
   d="m 553.244,493.055 c 0.193,-13.922 -12.355,-17.783 -27.545,-16.99 -17.137,0.893 -36.467,6.953 -54.379,0.602 12.393,11.625 35.36,29.77 58.627,31.732 11.767,0.994 23.138,-4.272 23.297,-15.344 z"
   id="path260" />
			<path
   style="fill:#dd608c;fill-opacity:1"
   fill="#ec008c"
   d="m 472.956,489.129 c 2.828,10.344 1.504,21.83 0.327,33.797 -0.657,6.727 -2.713,14.129 -1.255,19.385 1.74,6.25 12.502,12.674 20.761,8.664 5.224,-2.535 7.368,-8.975 7.744,-14.953 1.47,-23.514 -16.847,-34.481 -27.577,-46.893 z"
   id="path262" />
			<path
   style="fill:#dd608c;fill-opacity:1"
   fill="#ec008c"
   d="m 273.711,505.965 c 20.481,1.203 33.425,-14.375 43.704,-24.168 0.912,-0.867 2.664,-2.07 2.412,-3.436 -4.091,0.504 -8.427,1.68 -14.024,1.988 -12.233,0.668 -27.442,-4.115 -36.813,-3.242 -5.565,0.523 -10.391,7.348 -11.19,12.93 -1.536,10.649 7.792,15.449 15.911,15.928 z"
   id="path264" />
			<path
   style="fill:#dd608c;fill-opacity:1"
   fill="#ec008c"
   d="m 395.013,515.941 c -0.012,-0.307 -0.365,-0.451 -0.766,-0.404 -6.432,9.973 -14.873,17.689 -24.303,25.031 -4.973,3.863 -12.638,7.824 -14.309,13.238 -2.764,8.967 3.216,17.656 10.012,19.275 3.539,0.844 7.838,-0.291 10.527,-1.684 15.101,-7.807 19.894,-33.829 18.839,-55.456 z"
   id="path266" />
			<path
   style="fill:#dd608c;fill-opacity:1"
   fill="#ec008c"
   d="m 295.572,532.91 c 2.563,-14.432 8.61,-25.197 14.483,-36.152 0.413,-0.004 0.317,-0.482 -0.375,-0.393 -9.681,8.619 -21.386,16.994 -39.98,14.932 -11.094,14.215 15.335,36.084 25.872,21.613 z"
   id="path268" />
			<path
   style="fill:#dd608c;fill-opacity:1"
   fill="#ec008c"
   d="m 436.106,282.799 c -20.485,6.984 -30.892,39.817 -25.374,68.104 4.2,-3.2 6.891,-8.075 10.787,-12.157 10.289,-10.781 25.108,-25.602 23.298,-47.189 -0.406,-4.88 -2.667,-10.824 -8.711,-8.758 z"
   id="path270" />
			<path
   style="fill:#dd608c;fill-opacity:1"
   fill="#ec008c"
   d="m 223.287,409.193 c 1.249,7.1 7.204,11.275 14.062,12.379 9.885,-8.199 24.009,-11.939 37.301,-16.551 -13.32,-0.037 -25.038,-4.393 -32.736,-10.903 -2.163,-1.826 -5.657,-6.462 -7.601,-6.795 -8.408,-1.41 -12.467,13.646 -11.026,21.87 z"
   id="path272" />
			<path
   style="fill:#dd608c;fill-opacity:1"
   fill="#ec008c"
   d="m 497.192,466.818 c 2.034,-6.799 -5.042,-10.896 -10.155,-13.457 -16.259,-8.127 -39.241,-7.518 -54.77,-14.941 0.006,-0.215 -0.304,-0.451 -0.393,-0.01 5.287,5.619 12.562,13.166 20.885,19.152 7.934,5.713 17.735,12.115 26.446,14.25 7.39,1.813 16.249,0.823 17.987,-4.994 z"
   id="path274" />
			<path
   style="fill:#dd608c;fill-opacity:1"
   fill="#ec008c"
   d="m 510.125,414.709 c 0.039,0.479 0.1,0.928 0.757,0.795 10.212,7.102 17.023,15.221 24.627,25.076 3.38,4.385 8.093,12.162 13.257,13.527 8.891,2.361 18.905,-3.912 19.335,-12.338 0.18,-3.549 -1.509,-7.586 -2.87,-9.775 -8.827,-14.256 -31.44,-18.168 -55.106,-17.285 z"
   id="path276" />
			<path
   style="fill:#dd608c;fill-opacity:1"
   fill="#ec008c"
   d="m 558.452,486.582 c 3.592,-1.912 6.691,-1.75 9.802,-4.029 8.411,-6.164 8.634,-22.982 1.522,-30.256 -4.834,7.236 -20.959,10.703 -29.222,3.943 -0.406,7.791 -5.656,10.504 -10.435,13.717 15.506,-0.228 23.567,6.627 28.333,16.625 z"
   id="path278" />
			<path
   style="fill:#dd608c;fill-opacity:1"
   fill="#ec008c"
   d="m 435.378,454.029 c 2.494,13.154 -0.105,29.365 4.757,43.227 1.83,5.221 3.839,10.596 7.764,15.719 2.896,3.779 8.604,10.805 13.725,10.441 6.782,-0.488 7.788,-13.805 7.132,-21.574 -1.772,-21.153 -19.415,-38.967 -33.378,-47.813 z"
   id="path280" />
			<path
   style="fill:#dd608c;fill-opacity:1"
   fill="#ec008c"
   d="m 412.08,390.933 c 9.641,-13.268 21.694,-27.786 22.927,-47.975 -6.494,-1.463 -12.702,4.044 -15.728,7.771 -8.091,9.988 -8.985,30.626 -11.593,45.142 2.334,-0.483 3.096,-3.155 4.394,-4.938 z"
   id="path282" />
			<path
   style="fill:#dd608c;fill-opacity:1"
   fill="#ec008c"
   d="m 251.083,321.334 c -0.541,11.244 9.176,17.028 18.587,17.937 19.853,1.914 43.725,-9.422 63.318,-0.773 -12.918,-12.571 -36.229,-30.375 -62.113,-32.21 -9.407,-0.666 -19.357,6.094 -19.792,15.046 z"
   id="path284" />
			<path
   style="fill:#dd608c;fill-opacity:1"
   fill="#ec008c"
   d="m 405.533,420.289 c 3.005,15.785 4.645,31.887 10.913,45.313 0.818,1.75 5.879,10.762 8.278,10.691 3.755,-0.113 5.522,-9.049 5.407,-14.234 -0.419,-17.965 -16.827,-30.443 -24.57,-42.938 -0.009,0.393 -0.018,0.775 -0.028,1.168 z"
   id="path286" />
			<path
   style="fill:#dd608c;fill-opacity:1"
   fill="#ec008c"
   d="m 423.003,247.135 c -11.351,10.157 -14.321,29.633 -13.708,52.089 7.374,-8.917 15.195,-17.424 25.078,-25.012 4.602,-3.531 11.866,-7.118 13.89,-12.087 4.115,-10.086 -4.409,-21.523 -14.251,-20.543 -3.919,0.388 -8.359,3.184 -11.009,5.553 z"
   id="path288" />
			<path
   style="fill:#dd608c;fill-opacity:1"
   fill="#ec008c"
   d="m 380.398,242.588 c -2.569,-2.306 -7.185,-5.402 -10.72,-6.088 -15.688,-3.042 -22.007,12.977 -16.514,24.055 5.033,10.162 17.52,16.814 27.73,24.762 7.111,5.536 12.49,11.194 17.037,17.898 1.313,1.933 3.555,6.58 4.511,5.935 -0.393,-13.23 -2.624,-25.822 -6.452,-37.443 -3.649,-11.089 -8.27,-22.545 -15.592,-29.119 z"
   id="path290" />
			<path
   style="fill:#dd608c;fill-opacity:1"
   fill="#ec008c"
   d="m 508.745,281.87 c -2.458,14.806 -9.74,26.665 -14.902,37.302 9.931,-8.563 21.255,-17.738 40.375,-15.314 11.593,-12.516 -13.51,-36.721 -25.473,-21.988 z"
   id="path292" />
			<path
   style="fill:#dd608c;fill-opacity:1"
   fill="#ec008c"
   d="m 573.269,373.943 c 1.591,-10.52 -6.285,-17.897 -16.271,-17.488 -13.647,0.553 -22.272,15.405 -30.152,26.053 -6.981,9.418 -14.114,16.902 -23.478,22.717 -1.171,0.732 -3.896,1.818 -2.777,2.65 16.714,-0.479 30.409,-3.914 43.715,-9.018 11.736,-4.509 26.889,-11.261 28.963,-24.914 z"
   id="path294" />
			<path
   style="fill:#dd608c;fill-opacity:1"
   fill="#ec008c"
   d="m 568.34,353.239 c 10.228,-13.98 -1.228,-32.139 -15.897,-32.622 -0.643,13.382 -6.727,21.064 -18.043,23.241 4.263,2.925 3.906,12.185 2.681,17.152 5.883,-7.358 19.561,-13.756 31.259,-7.771 z"
   id="path296" />
			<path
   style="fill:#dd608c;fill-opacity:1"
   fill="#ec008c"
   d="m 525.937,309.086 c -17.508,0.934 -29.069,14.789 -38.648,23.9 -0.854,0.818 -3.396,1.717 -2.414,3.436 8.7,-1.708 18.756,-1.873 29.537,-0.823 7.394,0.724 14.878,3.307 20.516,2.449 8.161,-1.244 15.813,-14.439 9.503,-23.067 -3.699,-5.062 -10.595,-6.314 -18.494,-5.895 z"
   id="path298" />
			<path
   style="fill:#dd608c;fill-opacity:1"
   fill="#ec008c"
   d="m 532.255,462.244 c 3.4,-3.043 4.342,-10.381 -0.44,-13.602 -4.117,10.164 -24.773,7.375 -34.659,3.807 3.448,3.375 8.864,11.531 4.576,19.135 9.415,-1.068 24.225,-3.701 30.523,-9.34 z"
   id="path300" />
			<path
   style="fill:#dd608c;fill-opacity:1"
   fill="#ec008c"
   d="m 332.626,274.415 c -0.868,-5.489 -6.671,-10.111 -12.147,-11.171 -10.812,-2.096 -15.846,6.551 -16.674,14.732 -2.322,22.852 16.286,35.629 27.174,47.658 -1.341,-8.021 -1.941,-19.192 -0.812,-30.306 0.814,-7.953 3.284,-15.675 2.459,-20.913 z"
   id="path302" />
			<path
   style="fill:#dd608c;fill-opacity:1"
   fill="#ec008c"
   d="m 388.161,242.78 c 7.834,9.975 11.899,23.545 16.177,36.9 0.954,-18.508 7.585,-31.053 18.062,-39.55 -2.007,-16.17 -34.928,-15.301 -34.239,2.65 z"
   id="path304" />
			<path
   style="fill:#dd608c;fill-opacity:1"
   fill="#ec008c"
   d="m 276.82,301.388 c 15.253,1.907 25.432,8.643 36.536,14.492 -7.806,-10.523 -17.473,-21.248 -14.93,-40.364 -12.184,-12.59 -37.45,15.108 -21.606,25.872 z"
   id="path306" />
			<path
   style="fill:#dd608c;fill-opacity:1"
   fill="#ec008c"
   d="m 304.109,407.299 c 0.214,0.006 0.45,-0.301 0.01,-0.383 -23.258,1.127 -56.454,9.691 -67.757,23.174 -1.732,2.072 -4.838,7.697 -5.312,10.748 -1.968,12.809 10.538,20.963 22.119,16.465 8.145,-3.166 15.28,-12.504 21.085,-20.447 9.035,-12.372 17.225,-22.606 29.855,-29.557 z"
   id="path308" />
			<path
   style="fill:#dd608c;fill-opacity:1"
   fill="#ec008c"
   d="m 272.104,366.514 c 4.539,-10.239 24.914,-7.9 35.043,-3.799 -3.252,-3.234 -9.194,-11.731 -4.577,-19.136 -13.638,0.774 -42.391,7.049 -30.466,22.935 z"
   id="path310" />
			<path
   style="fill:#dd608c;fill-opacity:1"
   fill="#ec008c"
   d="m 489.123,557.875 c -12.389,-0.256 -21.38,-6.906 -23.633,-18.055 -2.738,4.461 -11.918,3.715 -16.768,2.691 7.188,5.844 13.324,19.145 7.771,31.26 13.912,9.792 31.254,-0.517 32.63,-15.896 z"
   id="path312" />
			<path
   style="fill:#dd608c;fill-opacity:1"
   fill="#ec008c"
   d="m 303.238,442.619 c -9.668,0.609 -14.081,-3.779 -16.846,-9.736 -6.175,6.463 -26.258,34.701 -5.197,37.535 -1.74,-15.764 12.506,-21.264 22.043,-27.799 z"
   id="path314" />
			<path
   style="fill:#dd608c;fill-opacity:1"
   fill="#ec008c"
   d="m 266.438,454.525 c -5.517,7.154 -18.869,12.771 -30.468,7.4 -10.203,13.523 0.275,31.246 15.89,32.621 0.46,-13.451 6.444,-21.1 17.66,-23.252 -2.419,-2.35 -4.659,-10.523 -2.309,-16.367 -0.079,-0.298 -0.317,-0.454 -0.773,-0.402 z"
   id="path316" />
			<path
   style="fill:#dd608c;fill-opacity:1"
   fill="#ec008c"
   d="m 416.147,572.385 c -8.017,-10.059 -11.835,-24.107 -16.558,-37.301 -0.01,0.393 -0.019,0.775 -0.028,1.166 -0.707,13.938 -4.39,24.41 -11.278,32.344 -1.985,2.279 -6.061,4.705 -6.384,6.826 -1.199,7.916 12.149,11.982 20.695,10.998 8.041,-0.926 12.279,-6.789 13.553,-14.033 z"
   id="path318" />
			<path
   style="fill:#dd608c;fill-opacity:1"
   fill="#ec008c"
   d="m 527.87,514.172 c -14.783,-2.473 -26.723,-9.68 -37.301,-14.896 8.524,9.977 17.475,21.469 15.314,40.373 12.23,11.281 36.346,-12.815 21.987,-25.477 z"
   id="path320" />
		</g>
		<path
   style="fill:#dd608c;fill-opacity:1"
   fill="#ec008c"
   d="m 767.986,445.924 c -0.606,-14.34 -4.854,-25.707 -9.989,-35.973 -1.662,-3.328 -5.167,-6.746 -5.171,-10.613 -0.011,-3.624 2.991,-8.427 4.585,-12.702 1.54,-4.133 3.363,-9.072 3.828,-13.495 2.068,-19.763 -6.422,-34.019 -16.423,-42.73 -3.764,-3.282 -12.755,-6.793 -12.54,-11.181 0.154,-3.079 4.484,-4.874 5.973,-6.067 1.97,-1.575 4.509,-4.645 5.228,-7.254 2.688,-9.708 -4.441,-17.965 -8.031,-20.773 -3.192,-2.506 -9.563,-4.244 -9.898,-8.011 -0.449,-5.087 3.388,-5.406 3.754,-10.394 0.667,-9.175 -8.191,-15.481 -13.909,-18.598 -4.524,-2.461 -13.396,-3.884 -14.176,-7.726 -0.634,-3.12 1.186,-5.374 2.146,-8.49 0.952,-3.066 1.885,-6.547 2.162,-8.882 2.974,-24.667 -9.058,-40.298 -20.513,-49.822 -8.189,-6.809 -18.587,-11.934 -29.137,-15.477 -3.473,-1.161 -8.752,-1.611 -11.168,-3.771 -2.111,-1.882 -3.251,-5.883 -4.442,-8.652 -4.007,-9.284 -7.858,-15.665 -14.224,-21.709 -7.326,-6.944 -18.36,-13.895 -35.798,-12.915 -3.771,0.206 -13.805,4.671 -17.114,1.13 -3.072,-3.301 0.374,-7.687 0.277,-11.256 -0.304,-11.64 -12.84,-16.869 -23.708,-14.952 -2.91,0.513 -6.135,2.461 -9.362,1.707 -4.077,-0.949 -3.774,-7.74 -6.328,-11.028 -5.457,-7.02 -20.334,-4.282 -27.146,-1.446 -2.913,1.21 -5.968,4.104 -9.408,3.656 -4.379,-0.571 -7.029,-9.735 -9.755,-13.839 -9.576,-14.396 -24.628,-23.88 -49.151,-22.57 -8.989,0.483 -17.572,2.955 -24.606,5.608 -2.796,1.063 -6.771,2.595 -10.204,4.411 -3.441,1.823 -6.998,4.89 -10.214,4.795 -3.479,-0.106 -8.73,-3.405 -11.927,-4.565 -4.112,-1.497 -8.454,-3.327 -12.72,-3.81 -22.47,-2.562 -37.562,7.46 -46.3,19.44 -2.771,3.798 -4.832,9.734 -8.778,9.488 -3.206,-0.193 -3.896,-3.649 -5.302,-5.563 -8.182,-11.18 -23.552,-4.575 -29.193,2.775 -2.333,3.046 -3.936,9.193 -7.611,9.515 -4.438,0.397 -6.763,-4.061 -11.16,-4.154 -10.781,-0.23 -17.366,12.436 -20.312,20.465 -1.099,3.007 -2.09,6.84 -4.844,7.648 -3.808,1.124 -8.337,-1.75 -11.59,-2.614 -25.159,-6.672 -43.8,5.569 -54.417,18.072 -6.753,7.943 -13.383,18.707 -17.047,29.873 -1.139,3.46 -1.409,9.47 -3.791,11.945 -1.417,1.467 -4.975,2.262 -7.464,3.312 -18.554,7.808 -37.454,21.9 -35.81,50.76 0.208,3.679 4.713,13.814 1.13,17.115 -3.322,3.057 -8.682,-0.449 -11.64,-0.287 -10.081,0.556 -15.895,10.001 -14.904,21.766 0.313,3.746 3.734,8.229 2.029,12.089 -1.44,3.267 -7.237,2.79 -9.819,4.421 -7.724,4.878 -5.735,20.362 -2.632,27.892 1.129,2.734 4.294,6.884 3.636,10.185 -0.724,3.656 -8.807,6.069 -12.242,8.242 -12.584,7.961 -22.302,19.789 -24.235,37.846 -1.999,18.675 3.659,34.954 9.723,46.843 1.813,3.561 5.242,6.559 5.18,10.223 -0.064,3.744 -3.32,8.482 -4.565,11.928 -1.491,4.119 -3.293,8.539 -3.819,13.104 -2.363,20.73 6.471,35.793 17.536,44.701 2.799,2.254 11.517,5.574 11.408,9.992 -0.119,4.797 -6.654,5.666 -9.159,9.094 -5.799,7.945 -0.832,19.543 4.45,24.188 3.589,3.148 10.294,4.389 11.046,8.814 0.871,5.113 -4.788,7.359 -3.467,14.674 1.304,7.201 10.117,12.73 16.312,15.545 3.964,1.799 10.451,2.637 11.494,6.5 1.245,4.643 -2.79,11.193 -3.482,15.055 -6.622,36.959 20.431,56.643 45.742,66.371 3.506,1.348 12.026,2.84 14.635,5.018 2.455,2.061 3.921,7.85 5.17,10.615 8.137,17.947 23.178,35.342 51.229,32.715 3.775,-0.355 12.995,-4.697 15.535,-0.008 2.178,4.025 -0.98,6.504 -0.653,10.863 0.777,10.393 11.597,16.219 22.936,14.541 3.18,-0.463 7.206,-2.939 10.529,-1.676 4.077,1.545 3.533,8.031 5.562,10.617 4.362,5.561 14.699,5.281 22.445,3.271 4.815,-1.248 9.861,-5.771 14.492,-5.074 3.737,0.561 5.74,7.703 8.632,12.244 7.888,12.439 19.967,22.35 39.006,24.264 17.449,1.762 32.153,-3.557 43.715,-9.018 3.668,-1.732 7.752,-5.945 12.186,-5.912 3.751,0.027 8.744,3.127 12.7,4.584 3.973,1.473 8.833,3.342 13.497,3.826 20.451,2.145 34.641,-7.125 43.561,-18.338 2.814,-3.541 6.689,-10.855 10.357,-10.615 3.334,0.217 4.239,4.162 5.676,5.963 1.299,1.619 5.063,4.625 6.863,5.217 7.619,2.508 14.833,-1.549 18.366,-4.596 3.042,-2.623 6.957,-13.025 11.2,-13.313 5.371,-0.367 6.494,4.588 13.104,3.818 6.271,-0.736 11.771,-7.533 14.262,-11.303 2.974,-4.49 4.511,-16.008 9.352,-16.857 3.023,-0.529 6.048,1.291 8.874,2.164 2.961,0.912 6.688,1.924 8.882,2.162 37.319,4.039 54.995,-23.283 64.103,-48.518 1.299,-3.584 2.085,-9.76 4.185,-12.318 2.188,-2.666 8.037,-3.982 11.399,-5.543 3.421,-1.59 6.973,-3.004 9.83,-4.807 13.646,-8.619 25.214,-25.563 21.784,-48.785 -0.487,-3.301 -3.739,-8.848 -0.87,-12.061 3.068,-3.42 6.117,-0.02 11.267,-0.105 9.044,-0.146 14.687,-8.609 15.545,-16.318 0.784,-6.973 -3.495,-12.73 -1.904,-17.135 1.496,-4.127 8.356,-3.424 11.418,-6.318 5.139,-4.848 4.359,-17.447 2.144,-24.023 -1.313,-3.912 -5.635,-8.762 -4.729,-12.932 0.827,-3.775 10.8,-6.902 13.813,-8.979 13.321,-9.178 23.92,-23.232 22.908,-47.199 z m -14.011,1.207 c -2.391,24.779 -20.674,45.281 -40.908,52.586 10.892,10.748 11.306,39.854 -10.272,38.574 7.137,16.715 -2.096,38.266 -22.158,32.467 2.396,6.771 5.451,14.287 5.228,24.199 -0.591,26.84 -17.655,46.438 -40.098,51.438 -6.922,30.371 -32.267,55.752 -72.335,51.42 -6.312,-0.684 -11.077,-2.908 -16.569,-5.074 -0.613,17.357 -20.196,34.332 -34.67,20.121 -4.333,10.92 -19.408,23.135 -32.197,14.346 -2.688,-1.846 -4.388,-4.293 -6.405,-7.924 -6.463,27.115 -49.428,49.576 -77.617,29.537 -9.86,5.227 -19.326,10.27 -32.889,10.844 -32.64,1.381 -54.193,-18.764 -63.059,-41.166 -11.391,10.684 -39.177,11.521 -38.967,-10.279 -16.514,7.061 -38.327,-2.193 -32.065,-22.541 -30.178,14.98 -71.458,-3.721 -75.272,-34.088 -29.473,-6.67 -51.18,-29.768 -52.424,-63.039 -0.39,-10.453 2.122,-18.785 5.696,-26.266 C 99.721,561.79 82.422,542.098 96.883,527.618 86.684,523.749 73.59,509.095 82.133,495.8 c 1.94,-3.014 5.009,-4.496 7.944,-7.178 -21.758,-8.041 -39.816,-28.109 -36.61,-58.77 0.799,-7.592 3.735,-13.164 7.446,-18.457 C 54.615,400.297 48.475,387.133 49.877,370.743 52.278,342.631 70.003,323.427 91.244,315.45 80.176,304.604 80,275.368 101.523,276.481 c -7.315,-16.334 2.085,-38.372 22.149,-32.067 -14.276,-30.831 3.757,-71.521 34.871,-75.645 3,-15.952 11.277,-29.147 23.469,-38.25 15.261,-11.406 44.246,-19.882 65.435,-8.096 0.21,-17.487 20.387,-34.518 34.669,-20.119 3.223,-6.813 9.865,-16.061 18.683,-17.402 10.155,-1.543 16.333,4.305 19.919,10.979 8.085,-21.849 28.186,-40.419 59.163,-36.985 7.49,0.832 13.105,3.826 18.455,7.446 11.263,-6.087 22.836,-12.586 40.66,-11.036 27.151,2.357 47.63,20.468 55.296,40.976 6.818,-5.926 25.581,-11.55 34.229,-2.267 2.761,2.966 3.928,7.024 4.354,12.538 8.726,-2.782 20.306,-3.208 27.127,2.221 5.083,4.049 7.401,12.265 5.321,20.322 29.112,-14.482 72.01,3.891 75.264,34.477 31.497,8.046 55.706,31.881 51.803,72.344 -0.633,6.57 -2.821,11.37 -5.074,16.961 17.618,0.349 34.285,20.239 20.111,34.669 8.443,4.046 19.096,12.339 17.248,24.887 -1.027,6.995 -5.971,10.34 -10.834,14.1 21.78,7.394 40.02,27.885 37.023,57.612 -0.803,7.975 -3.748,13.947 -7.469,19.623 7.003,11.735 12.34,25.122 10.58,43.362 z"
   id="path324" />
		<g
   style="fill:#dd608c;fill-opacity:1"
   id="g414">
			<path
   style="fill:#dd608c;fill-opacity:1"
   fill="#ec008c"
   d="m 383.854,149.866 c 2.217,3.102 3.068,5.792 4.834,8.662 -1.325,-8.355 2.952,-14.336 3.629,-21.269 0.56,-5.702 -4.173,-17.239 -8.931,-15.754 -7.125,2.223 -10.639,14.218 -5.965,21.595 1.72,2.726 4.761,4.418 6.433,6.766 z"
   id="path326" />
			<path
   style="fill:#dd608c;fill-opacity:1"
   fill="#ec008c"
   d="m 414.553,133.145 c 0.038,3.02 2.58,6.784 3.243,10.175 0.829,4.221 0.098,8.168 2.04,11.705 1.357,-4.238 3.146,-7.483 5.328,-11.132 1.456,-2.441 6.468,-7.871 6.846,-9.926 0.502,-2.771 -1.646,-7.758 -2.87,-9.782 -5.281,-8.751 -14.687,1.112 -14.587,8.96 z"
   id="path328" />
			<path
   style="fill:#dd608c;fill-opacity:1"
   fill="#ec008c"
   d="m 396.786,129.21 c 3.261,-2.881 9.733,-5.256 14.022,-1.59 1.804,-5.003 5.099,-8.446 8.443,-11.831 -4.104,-13.471 -28.751,-13.154 -32.249,0.756 4.942,2.622 8.234,6.818 9.784,12.665 z"
   id="path330" />
			<path
   style="fill:#dd608c;fill-opacity:1"
   fill="#ec008c"
   d="m 427.452,523.348 c 6.677,5.838 34.41,26.172 37.54,5.197 -16.579,1.086 -20.889,-12.689 -27.806,-22.043 0.686,9.742 -3.938,13.912 -9.734,16.846 z"
   id="path332" />
			<path
   style="fill:#dd608c;fill-opacity:1"
   fill="#ec008c"
   d="m 263.389,247.571 c -0.005,0.223 0.175,0.27 0.385,0.3 -0.137,-0.091 -0.253,-0.204 -0.385,-0.3 z"
   id="path334" />
			<path
   style="fill:#dd608c;fill-opacity:1"
   fill="#ec008c"
   d="m 202.084,214.112 c 0.115,-6.113 2.646,-9.696 8.021,-10.283 -0.92,-4.565 -2.671,-8.331 -1.979,-14.422 -15.415,-5.74 -27.643,8.303 -22.695,22.742 4.398,-0.774 12.761,-0.126 16.653,1.963 z"
   id="path336" />
			<path
   style="fill:#dd608c;fill-opacity:1"
   fill="#ec008c"
   d="m 214.357,188.785 c -2.387,5.282 0.237,11.731 1.943,15.583 7.401,3.315 13.534,7.838 19.498,12.519 -2.634,-7.219 -4.845,-14.842 -6.021,-23.45 -2.735,-3.471 -9.401,-6.774 -15.42,-4.652 z"
   id="path338" />
			<path
   style="fill:#dd608c;fill-opacity:1"
   fill="#ec008c"
   d="m 590.959,191.867 c -10.199,-1.576 -18.179,3.04 -19.324,11.946 -0.768,5.998 0.227,12.75 -3.151,17.785 2.738,-2.16 5.524,-4.342 9.094,-6.767 7.61,-5.165 18.401,-10.004 13.381,-22.964 z"
   id="path340" />
			<path
   style="fill:#dd608c;fill-opacity:1"
   fill="#ec008c"
   d="m 186.839,218.008 c -2.624,10.229 2.824,19.164 12.319,20.11 5.589,0.558 11.527,-0.363 16.242,2.729 0.455,-1.668 -1.552,-2.267 -2.624,-3.561 -6.922,-8.308 -10.086,-23.771 -25.937,-19.278 z"
   id="path342" />
			<path
   style="fill:#dd608c;fill-opacity:1"
   fill="#ec008c"
   d="m 605.911,215.53 c 4.271,-1.211 8.448,-2.532 14.414,-1.972 5.521,-15.434 -8.414,-27.71 -23.126,-22.704 2.01,5.41 -0.548,13.293 -1.578,16.656 6.164,0.08 9.491,2.846 10.29,8.02 z"
   id="path344" />
			<path
   style="fill:#dd608c;fill-opacity:1"
   fill="#ec008c"
   d="m 617.079,597.146 c 3.366,-9.533 -2.094,-18.732 -11.159,-20.08 -6.186,-0.916 -12.799,0.195 -17.784,-3.158 9.039,7.862 10.581,26.766 28.943,23.238 z"
   id="path346" />
			<path
   style="fill:#dd608c;fill-opacity:1"
   fill="#ec008c"
   d="m 568.511,598.277 c 2.566,7.41 4.89,15.051 6.013,23.834 3.525,2.799 8.495,5.941 15.026,4.643 2.966,-5.018 0.22,-12.602 -1.923,-16.357 -7.437,-3.026 -13.086,-7.756 -19.116,-12.12 z"
   id="path348" />
			<path
   style="fill:#dd608c;fill-opacity:1"
   fill="#ec008c"
   d="m 602.233,600.662 c -0.063,6.307 -2.847,9.746 -8.03,10.68 1.011,4.332 2.571,9.773 1.973,14.416 16.188,4.941 26.837,-7.982 22.711,-23.133 -5.415,1.631 -12.726,0.168 -16.654,-1.963 z"
   id="path350" />
			<path
   style="fill:#dd608c;fill-opacity:1"
   fill="#ec008c"
   d="m 197.622,599.615 c -3.96,0.955 -8.826,2.836 -13.629,1.607 -5.521,15.404 7.402,27.5 22.725,23.078 -0.589,-4.428 -0.441,-13.293 2.354,-16.637 -6.898,0.251 -9.377,-3.704 -11.45,-8.048 z"
   id="path352" />
			<path
   style="fill:#dd608c;fill-opacity:1"
   fill="#ec008c"
   d="m 212.593,622.502 c 9.274,3.285 18.978,-2.236 20.084,-11.535 0.744,-6.211 0.303,-12.594 2.383,-17.811 -6.877,9.77 -26.914,11.617 -22.467,29.346 z"
   id="path354" />
			<path
   style="fill:#dd608c;fill-opacity:1"
   fill="#ec008c"
   d="m 182.979,594.982 c 5.038,3.016 12.444,0.021 16.358,-1.924 2.768,-7.713 7.652,-13.203 12.12,-19.123 -7.557,2.143 -14.316,5.137 -23.435,5.637 -3.207,3.289 -6.769,9.479 -5.043,15.41 z"
   id="path356" />
			<path
   style="fill:#dd608c;fill-opacity:1"
   fill="#ec008c"
   d="m 604.972,222.114 c -2.14,2.197 -3.484,6.713 -5.686,9.955 -2.342,3.445 -4.52,6.331 -6.441,9.16 7.37,-2.616 14.85,-5.109 23.843,-6.011 2.663,-3.466 6.519,-9.4 4.26,-15.43 -6.011,-1.636 -12.843,-0.908 -15.976,2.326 z"
   id="path358" />
			<path
   style="fill:#dd608c;fill-opacity:1"
   fill="#ec008c"
   d="m 127.369,377.701 c -4.272,-0.276 -12.339,4.374 -12.607,7.456 -0.338,3.901 8.021,9.903 12.567,10.015 2.761,0.068 7.082,-2.524 10.567,-3.236 4.4,-0.894 8.362,-0.434 11.697,-2.039 -3.874,-1.377 -7.374,-3.25 -11.505,-5.723 -3.46,-2.065 -7.265,-6.259 -10.719,-6.473 z"
   id="path360" />
			<path
   style="fill:#dd608c;fill-opacity:1"
   fill="#ec008c"
   d="m 665.456,430.58 c 3.221,1.881 7.569,5.982 10.326,6.471 5.579,0.992 13.611,-3.752 13.774,-7.428 0.133,-3.023 -9.507,-11.164 -13.353,-9.648 -6.197,2.438 -14.203,4.035 -21.469,4.516 3.047,2.056 6.707,3.747 10.722,6.089 z"
   id="path362" />
			<path
   style="fill:#dd608c;fill-opacity:1"
   fill="#ec008c"
   d="m 692.803,392.425 c -2.089,5.629 -7.739,7.526 -12.3,10.569 3.436,2.135 4.502,9.443 1.617,13.246 5.2,1.617 7.986,5.535 11.83,8.441 13.4,-4.345 13.151,-28.941 -1.147,-32.256 z"
   id="path364" />
			<path
   style="fill:#dd608c;fill-opacity:1"
   fill="#ec008c"
   d="m 688.226,389.202 c 0.013,-4.514 -7.67,-7.993 -11.83,-8.444 -3.45,-0.377 -7.058,0.353 -9.361,1.713 -5.339,3.136 -9.436,10.475 -16.214,11.638 8.507,-1.393 14.615,3.01 21.661,3.639 6.159,0.551 15.726,-3.506 15.744,-8.546 z"
   id="path366" />
			<path
   style="fill:#dd608c;fill-opacity:1"
   fill="#ec008c"
   d="m 125.291,534.809 c 7.668,1.289 12.814,-1.533 15.821,-7.813 -7.165,-4.877 -15.016,0.639 -15.821,7.813 z"
   id="path368" />
			<path
   style="fill:#dd608c;fill-opacity:1"
   fill="#ec008c"
   d="m 142.136,519.029 c -0.638,-3.27 1.259,-9.459 1.877,-13.16 2.245,-13.393 6.75,-24.607 10.585,-35.463 -13.994,0.752 -23.221,-6.148 -33.932,-9.773 -19.584,18.092 -14.91,59.813 -0.44,80.766 9.65,13.979 22.963,24.396 42.488,25.125 1.933,-12.566 5.594,-23.313 10.893,-32.352 -5.235,-2.207 -10.097,-4.541 -16.137,-7.004 -4.61,-1.871 -14.411,-3.41 -15.334,-8.139 z m -26.892,-40.072 c 3.23,0.664 0.868,5.17 1.721,8.049 3.029,2.24 9.985,3.131 12.272,3.057 0,0 -0.025,-5.863 0.794,-5.504 1.595,0.701 1.446,3.631 1.582,6.119 7.219,0.955 1.067,-9.57 5.188,-9.93 1.653,-0.143 2.331,10.977 -0.247,13.871 -2.723,3.049 -14.457,2.031 -18.722,-0.666 -4.958,-3.135 -4.296,-15.348 -2.588,-14.996 z m 1.104,41.674 c -5.109,-2.641 3.225,-5.918 7.235,-7.893 3.589,-1.77 6.535,-3.484 8.588,-4.115 -2.054,-0.992 -5.386,-1.064 -7.831,-1.361 -4.448,-0.533 -11.091,1.385 -10.187,-2.012 0.76,-2.857 6.401,-1.951 9.934,-1.752 3.604,0.207 7.424,0.861 10.907,2.432 6.064,2.736 -2.063,8.914 -6.659,11.545 -4.172,2.398 -8.721,4.841 -11.987,3.156 z m 10.648,19.224 c -1.967,-0.65 -4.162,-2.996 -4.261,-6.055 -0.201,-6.143 11.612,-14.293 19.005,-9.449 2.19,1.436 3.376,4.387 2.07,8.072 -1.446,4.083 -10.253,9.591 -16.814,7.432 z m 33.386,2.883 c -1.753,3.754 -12.796,19.576 -17.206,14.48 -2.1,-2.428 8.86,-8.424 11.925,-14.936 -1.558,-2.707 -8.07,-5.6 -7.18,-6.656 4.071,-4.837 13.259,5.403 12.461,7.112 z"
   id="path370" />
			<path
   style="fill:#dd608c;fill-opacity:1"
   fill="#ec008c"
   d="m 277.22,127.12 c -0.326,7.769 3.113,12.525 9.716,14.729 3.951,-7.715 -2.497,-14.82 -9.716,-14.729 z"
   id="path372" />
			<path
   style="fill:#dd608c;fill-opacity:1"
   fill="#ec008c"
   d="m 306.706,113.014 c -33.888,1.769 -59.969,21.772 -63.872,54.731 12.161,2.579 23.708,5.725 32.734,11.288 1.83,-5.487 4.581,-10.217 6.998,-16.131 1.955,-4.793 3.162,-14.446 8.145,-15.333 3.325,-0.602 9.409,1.235 13.153,1.876 13.265,2.257 24.484,6.598 35.08,10.576 -0.189,-13.652 6.292,-23.624 10.166,-34.313 -9.87,-8.916 -25.409,-13.586 -42.404,-12.694 z m -29.955,45.474 c -1.531,0.173 -5.637,-3.228 -8.423,-4.871 -1.491,2.149 -3.011,4.276 -4.057,6.891 2.416,1.619 7.635,3.041 7.264,4.835 -0.749,3.625 -7.917,0.184 -10.998,-1.366 -3.544,-1.789 -10.799,-4.407 -8.978,-7.67 1.54,-2.759 7.335,1.932 10.013,3.357 1.251,-2.02 4.189,-6.029 4.938,-7.608 -0.604,-0.754 -9.191,-3.81 -6.862,-8.75 2.038,-4.325 16.325,5.047 19.125,11.734 0.681,1.632 -0.993,2.669 -2.022,3.448 z m 12.887,-16.343 c -1.151,2.351 -3.933,3.895 -7.751,3.055 -4.23,-0.928 -10.79,-8.982 -9.461,-15.761 0.401,-2.033 2.455,-4.501 5.478,-4.979 6.069,-0.962 15.622,9.748 11.734,17.685 z m 32.197,-16.718 c 3.581,-4.646 15.68,-2.852 15.171,-1.185 -0.962,3.154 -5.228,0.384 -8.175,0.966 -2.511,2.808 -4.043,9.652 -4.182,11.936 0,0 5.841,0.52 5.407,1.301 -0.846,1.524 -3.749,1.103 -6.24,1.006 -1.621,7.101 9.43,1.952 9.405,6.088 -0.01,1.659 -11.146,1.302 -13.788,-1.533 -2.782,-2.994 -0.68,-14.583 2.402,-18.579 z m -19.296,10.781 c 0.032,2.749 2.439,9.059 -0.967,7.743 -3.079,-1.191 -8.807,-22.029 -4.871,-23.03 2.468,-0.627 1.442,4.691 3.349,5.906 2.148,-4.781 4.271,-11.791 11.486,-9.036 9.185,3.507 1.383,21.563 -8.997,18.417 z"
   id="path374" />
			<path
   style="fill:#dd608c;fill-opacity:1"
   fill="#ec008c"
   d="m 306.778,121.945 c -3.465,-0.406 -5.056,6.104 -4.134,9.993 8.486,2.894 8.897,-9.427 4.134,-9.993 z"
   id="path376" />
			<path
   style="fill:#dd608c;fill-opacity:1"
   fill="#ec008c"
   d="m 521.744,652.271 c -1.886,4.523 -3.548,13.672 -7.361,14.961 -2.814,0.947 -9.518,-0.861 -13.17,-1.492 -13.979,-2.402 -24.988,-6.904 -36.239,-10.6 0.592,14.121 -6.131,23.75 -10.166,34.307 9.675,7.244 21.561,12.615 37.35,12.961 35.613,0.779 66.391,-21.785 68.937,-55.383 -12.331,-2.291 -23.635,-5.553 -32.343,-11.285 -1.952,5.229 -4.11,9.574 -7.008,16.531 z m -37.72,35.944 c -3.647,4.594 -15.719,2.623 -15.187,0.965 1.009,-3.141 5.233,-0.311 8.19,-0.848 2.552,-2.771 4.183,-9.592 4.354,-11.875 0,0 -5.831,-0.604 -5.387,-1.379 0.867,-1.512 3.765,-1.051 6.253,-0.916 1.725,-7.074 -9.398,-2.088 -9.313,-6.223 0.033,-1.658 11.162,-1.141 13.765,1.732 2.738,3.036 0.467,14.593 -2.675,18.544 z m 26.366,4.34 c -3.173,4.797 -5.536,-3.844 -7.07,-8.039 -1.373,-3.76 -2.762,-6.873 -3.169,-8.982 -1.209,1.938 -1.638,5.24 -2.195,7.643 -1.003,4.363 0.187,11.174 -3.094,9.91 -2.758,-1.061 -1.251,-6.574 -0.673,-10.063 0.593,-3.564 1.651,-7.291 3.587,-10.586 3.372,-5.734 8.641,3.008 10.762,7.859 1.937,4.406 3.88,9.189 1.852,12.258 z m 20.256,-8.526 c -0.857,1.885 -3.425,3.818 -6.479,3.588 -6.126,-0.461 -12.961,-13.08 -7.351,-19.91 1.66,-2.023 4.722,-2.887 8.244,-1.191 3.904,1.875 8.436,11.224 5.586,17.513 z m 6.448,-32.883 c 3.545,2.146 18.092,14.824 12.551,18.66 -2.638,1.828 -7.422,-9.713 -13.567,-13.459 -2.858,1.258 -6.434,7.424 -7.39,6.424 -4.372,-4.564 6.794,-12.603 8.406,-11.625 z"
   id="path378" />
			<path
   style="fill:#dd608c;fill-opacity:1"
   fill="#ec008c"
   d="m 303.985,692.018 c 2.481,-2.855 3.792,-6.443 5.531,-10.357 -2.589,0.072 -5.069,-0.617 -6.81,-0.754 0.346,2.941 0.3,8.089 1.279,11.111 z"
   id="path380" />
			<path
   style="fill:#dd608c;fill-opacity:1"
   fill="#ec008c"
   d="m 314.839,665.029 c -3.208,1.316 -12.193,6.525 -16.069,5.813 -2.842,-0.52 -5.707,-6.492 -7.917,-9.516 -7.507,-10.252 -15.044,-24.805 -19.737,-34.268 -7.006,9.23 -19.958,12.207 -31.099,17.094 2.259,17.471 11.243,31.105 23.833,41.361 12.291,10.014 28.716,18.059 49.669,17.15 13.427,-0.586 23.692,-5.736 31.396,-13.207 -4.732,-8.76 -12.313,-18.096 -14.387,-30.648 -5.694,1.34 -9.892,3.837 -15.689,6.221 z m -50.933,6.026 c -2.503,-1.926 2.987,-6.973 4.79,-9.414 -1.815,-1.531 -5.351,-5.025 -6.805,-5.998 -0.833,0.488 -5.113,8.535 -9.658,5.508 -3.981,-2.648 7.381,-15.41 14.408,-17.201 1.71,-0.436 2.493,1.373 3.113,2.504 -0.053,1.539 -4.02,5.104 -6.052,7.619 1.908,1.793 3.79,3.605 6.224,5.021 1.954,-2.15 4.125,-7.107 5.847,-6.475 3.476,1.271 -0.978,7.857 -2.962,10.678 -2.29,3.244 -5.943,10.037 -8.905,7.758 z m 17.453,14.582 c -3.486,2.979 -15.007,-5.65 -12.433,-9.416 1.287,-1.887 4.731,2.689 5.122,2.727 1.936,-3.836 7.12,-12.027 11.301,-15.32 1.053,-0.83 2.863,1.264 2.384,1.99 -2.945,4.486 -6.78,10.682 -10.618,15.27 0.902,1.52 5.904,3.331 4.244,4.749 z m 11.11,-2.858 c -1.414,3.49 -3.048,8.529 -5.312,9.588 -0.753,0.35 -2.316,-0.773 -2.246,-1.313 0.683,-5.268 7.07,-18.58 8.815,-18.51 3.473,0.14 0.008,7.114 -1.257,10.235 z m 10.706,14.022 c -4.316,-1.08 -7.372,-21.041 -1.786,-21.688 1.775,-0.207 0.991,2.447 1.323,3.791 0.786,-0.104 6.597,0.752 6.597,0.752 1.52,0.074 1.171,-2.49 2.136,-3.191 0.685,-0.652 2.242,-0.408 2.286,0.586 0.248,5.623 -7.917,20.41 -10.556,19.75 z m 22.232,0.082 c -3.42,0.98 -9.563,2.117 -9.673,-2.309 2.111,-0.564 4.991,-0.299 6.68,-1.316 0.312,-2.535 -0.067,-4.438 -0.135,-6.637 -1.475,-0.57 -4.652,0.895 -4.65,-0.955 10e-4,-1.594 2.641,-1.756 4.375,-2.176 -0.126,-2.953 -0.655,-7.338 -0.022,-9.762 0.878,-0.246 2.306,0.568 2.809,1.617 2.357,4.905 4.628,20.391 0.616,21.538 z"
   id="path382" />
			<path
   style="fill:#dd608c;fill-opacity:1"
   fill="#ec008c"
   d="m 519.377,668.617 c -5.617,6.6 -0.978,14.996 6.071,16.566 2.104,-7.484 -0.15,-12.902 -6.071,-16.566 z"
   id="path384" />
			<path
   style="fill:#dd608c;fill-opacity:1"
   fill="#ec008c"
   d="m 683.651,464.426 c -8.854,6.232 -18.089,12.055 -30.266,14.787 1.569,5.607 3.786,9.861 6.212,15.688 1.781,4.279 6.782,11.324 5.819,16.063 -0.617,3.02 -6.797,5.971 -9.515,7.924 -10.553,7.559 -21.805,14.059 -33.855,18.582 0.903,2.576 3.604,4.258 5.267,6.729 4.902,7.283 7.671,17.125 11.81,25.145 16.331,-1.732 28.957,-10.207 38.966,-21.174 9.579,-10.484 17.517,-24.926 18.905,-42.248 1.439,-17.906 -3.649,-31.564 -12.567,-41.477 -0.263,-0.007 -0.52,-0.013 -0.776,-0.019 z m -38.07,96.443 c -1.496,-2.938 3.499,-3.902 5.218,-6.367 -0.14,-3.764 -3.784,-9.754 -5.268,-11.496 0,0 -4.568,3.678 -4.799,2.813 -0.447,-1.684 1.936,-3.395 3.797,-5.053 -3.76,-6.238 -8.145,5.139 -10.997,2.141 -1.144,-1.203 7.125,-8.67 10.993,-8.461 4.081,0.227 10.607,10.031 11.161,15.047 0.644,5.827 -9.314,12.931 -10.105,11.376 z m 31.333,-25.568 c -1.343,2.162 -4.294,-2.379 -6.509,-1.93 1.77,4.934 5.104,11.453 -2.004,14.477 -9.049,3.846 -15.956,-14.572 -6.297,-19.508 -1.93,-1.959 -8.04,-4.832 -4.675,-6.246 3.045,-1.28 21.627,9.756 19.485,13.207 z m 11.084,-15.59 c -3.705,4.904 -18.015,3.818 -20.72,-4.596 -0.804,-2.492 0.128,-5.533 3.461,-7.578 3.69,-2.266 14.003,-1.018 17.749,4.787 1.121,1.742 1.354,4.944 -0.49,7.387 z m -12.664,-36.686 c 0.503,2.322 1.167,7.248 1.724,8.904 0.958,0.123 9.262,-3.631 11.013,1.541 1.532,4.529 -15.26,7.689 -21.915,4.814 -1.622,-0.697 -1.135,-2.605 -0.935,-3.883 0.981,-1.186 6.299,-1.586 9.446,-2.334 -0.417,-2.582 -0.799,-5.17 -1.86,-7.777 -2.863,0.508 -7.608,3.105 -8.586,1.557 -1.975,-3.131 5.575,-5.627 8.867,-6.646 3.794,-1.17 10.837,-4.318 11.788,-0.705 0.805,3.057 -6.624,3.697 -9.542,4.529 z"
   id="path386" />
			<path
   style="fill:#dd608c;fill-opacity:1"
   fill="#ec008c"
   d="m 128.74,309.761 c -2.908,0.57 -8.044,0.923 -10.981,2.131 3.04,2.255 6.718,3.285 10.756,4.716 -0.273,-2.575 0.224,-5.102 0.225,-6.847 z"
   id="path388" />
			<path
   style="fill:#dd608c;fill-opacity:1"
   fill="#ec008c"
   d="m 669.429,513.453 c 2.506,8.299 12.08,8.941 17.217,3.867 -5.156,-5.82 -10.933,-6.861 -17.217,-3.867 z"
   id="path390" />
			<path
   style="fill:#dd608c;fill-opacity:1"
   fill="#ec008c"
   d="m 420.828,666.084 c -2.345,-3.084 -3.028,-6.27 -5.206,-9.447 -0.305,4.242 -0.332,8.479 -1.083,12.404 -0.62,3.238 -2.726,6.289 -2.947,9.246 -0.434,5.727 3.806,15.123 8.949,14.98 7.132,-0.211 10.534,-14.301 6.347,-21.201 -1.511,-2.502 -4.365,-3.742 -6.06,-5.982 z"
   id="path392" />
			<path
   style="fill:#dd608c;fill-opacity:1"
   fill="#ec008c"
   d="m 406.75,685.543 c -1.938,3.727 -9.342,4.945 -13.249,2.008 -1.957,4.844 -5.426,8.098 -8.443,11.824 4.395,13.5 28.325,12.809 32.248,-0.756 -5.406,-2.555 -7.974,-7.822 -10.556,-13.076 z"
   id="path394" />
			<path
   style="fill:#dd608c;fill-opacity:1"
   fill="#ec008c"
   d="m 664.263,283.859 c 1.697,-2.428 5.153,-6.246 6.429,-9.153 -3.752,0.485 -7.116,2.295 -11.018,4.066 1.984,1.665 3.379,3.829 4.589,5.087 z"
   id="path396" />
			<path
   style="fill:#dd608c;fill-opacity:1"
   fill="#ec008c"
   d="m 386.513,671.844 c -1.065,-5.016 -0.535,-10.059 -2.038,-12.088 -1.128,3.902 -3.134,7.619 -5.725,11.896 -1.952,3.215 -6.144,7.467 -6.461,9.938 -0.65,5.031 4.264,13.332 7.821,13.393 3.736,0.07 9.611,-8.365 9.64,-12.963 0.022,-2.348 -2.428,-6.352 -3.237,-10.176 z"
   id="path398" />
			<path
   style="fill:#dd608c;fill-opacity:1"
   fill="#ec008c"
   d="m 664.99,531.488 c -8.118,3.805 0.133,12.963 3.956,10.064 2.776,-2.109 -0.593,-7.902 -3.956,-10.064 z"
   id="path400" />
			<path
   style="fill:#dd608c;fill-opacity:1"
   fill="#ec008c"
   d="m 164.804,245.429 c -31.023,5.072 -55.027,31.775 -57.929,65.75 -1.403,16.453 4.688,29.596 13.007,39.541 9.418,-6.033 18.705,-12.203 31.05,-15.153 -2.013,-5.254 -3.73,-9.796 -6.212,-15.688 -1.803,-4.266 -6.928,-11.198 -5.819,-16.069 0.639,-2.783 7.131,-6.247 9.515,-7.917 10.75,-7.531 21.939,-13.776 33.854,-18.58 -8.025,-8.279 -12.413,-20.02 -16.684,-31.865 -0.263,-0.006 -0.519,-0.012 -0.782,-0.019 z m -47.557,47.372 c 5.304,0.275 19.072,5.615 19.136,7.361 0.129,3.471 -7.09,0.557 -10.3,-0.464 -3.59,-1.141 -8.742,-2.381 -9.969,-4.555 -0.409,-0.724 0.591,-2.37 1.133,-2.342 z M 134.415,308 c 0.343,1.754 -2.366,1.177 -3.678,1.612 0.164,0.775 -0.241,6.635 -0.241,6.635 0.043,1.521 2.573,0.976 3.349,1.882 0.702,0.633 0.579,2.205 -0.409,2.325 -5.587,0.682 -20.961,-6.318 -20.507,-9 0.743,-4.387 20.409,-8.973 21.486,-3.454 z m 1.575,23.348 c -4.709,2.73 -19.973,6.191 -21.426,2.278 -1.24,-3.333 -2.85,-9.37 1.555,-9.822 0.726,2.061 0.684,4.953 1.829,6.559 2.551,0.114 4.42,-0.41 6.608,-0.647 0.454,-1.515 -1.252,-4.569 0.593,-4.711 1.585,-0.123 1.952,2.498 2.506,4.194 2.935,-0.354 7.265,-1.219 9.73,-0.775 0.312,0.856 -0.389,2.342 -1.395,2.924 z m 6.835,-37.697 c -4.698,-2.59 -11.172,-5.935 -16.043,-9.406 -1.444,1.016 -2.865,6.143 -4.407,4.598 -3.239,-3.247 4.475,-15.398 8.429,-13.124 1.979,1.138 -2.317,4.924 -2.323,5.317 3.976,1.634 12.541,6.172 16.148,10.085 0.908,0.985 -1.04,2.951 -1.804,2.53 z m 17.719,-19.407 c -1.539,0.067 -5.398,-3.612 -8.064,-5.444 -1.637,2.04 -3.301,4.056 -4.526,6.592 2.297,1.783 7.404,3.565 6.91,5.33 -1,3.564 -7.912,-0.368 -10.876,-2.128 -3.411,-2.03 -10.466,-5.148 -8.422,-8.276 1.729,-2.646 7.183,2.438 9.755,4.047 1.388,-1.928 4.599,-5.724 5.455,-7.247 -0.55,-0.794 -8.903,-4.44 -6.237,-9.206 2.334,-4.172 15.936,6.17 18.262,13.036 0.566,1.672 -1.175,2.591 -2.257,3.296 z"
   id="path402" />
			<path
   style="fill:#dd608c;fill-opacity:1"
   fill="#ec008c"
   d="m 502.967,139.149 c 8.583,-1.199 10.696,-10.559 6.474,-16.415 -6.546,4.196 -8.464,9.742 -6.474,16.415 z"
   id="path404" />
			<path
   style="fill:#dd608c;fill-opacity:1"
   fill="#ec008c"
   d="m 498.946,112.316 c -18.035,-1.656 -31.133,4.92 -39.952,13.773 6.377,8.714 12.158,17.991 14.789,30.266 5.502,-1.737 9.779,-3.739 15.687,-6.22 4.316,-1.809 11.465,-7.064 16.453,-5.803 2.549,0.64 6.3,7.289 7.917,9.515 7.893,10.81 13.396,22.657 18.962,34.25 7.069,-9.558 20.955,-11.963 31.509,-17.862 -5.869,-30.743 -30.374,-54.707 -65.365,-57.919 z m -20.828,28.115 c -1.223,-3.959 -3.67,-23.098 3.021,-22.285 3.186,0.388 -0.908,12.191 1.194,19.075 2.973,0.958 9.741,-1.272 9.792,0.108 0.233,6.317 -13.451,4.903 -14.007,3.102 z m 26.158,1.099 c -2.586,0.408 -5.446,-0.981 -6.953,-4.588 -1.669,-3.995 1.154,-13.993 7.465,-16.799 1.895,-0.839 5.096,-0.577 7.225,1.623 4.272,4.415 0.994,18.386 -7.737,19.764 z m 14.553,-3.908 c 1.48,-4.58 3.208,-9.445 6.76,-10.39 5.559,-1.475 1.585,6.55 -0.058,10.707 -1.473,3.722 -2.502,6.971 -3.599,8.817 2.188,-0.645 4.705,-2.829 6.715,-4.251 3.652,-2.594 7.288,-8.476 8.899,-5.351 1.355,2.626 -3.433,5.745 -6.184,7.969 -2.81,2.267 -6.079,4.348 -9.714,5.524 -6.329,2.045 -4.457,-7.989 -2.819,-13.025 z m 35.569,19.743 c -2.841,1.677 -4.116,-3.247 -6.683,-4.808 -3.749,0.375 -9.5,4.388 -11.145,5.979 0,0 3.956,4.327 3.109,4.611 -1.653,0.553 -3.512,-1.718 -5.281,-3.471 -5.991,4.141 5.636,7.807 2.824,10.839 -1.127,1.217 -9.099,-6.566 -9.134,-10.442 -0.029,-4.087 9.347,-11.214 14.318,-12.081 5.782,-1.007 13.492,8.486 11.992,9.373 z"
   id="path406" />
			<path
   style="fill:#dd608c;fill-opacity:1"
   fill="#ec008c"
   d="m 116.082,425.963 c 0.048,4.145 7.007,7.455 10.29,8.021 11.073,1.91 12.653,-4.729 18.072,-8.488 2.948,-2.043 5.942,-2.488 8.269,-4.453 -8.09,1.252 -15.979,-3.926 -22.425,-4.047 -5.225,-0.101 -14.251,4.19 -14.206,8.967 z"
   id="path408" />
			<path
   style="fill:#dd608c;fill-opacity:1"
   fill="#ec008c"
   d="m 661.79,295.741 c 0.838,3.011 -0.821,9.356 -1.486,13.171 -2.368,13.539 -6.85,24.627 -10.584,35.463 13.616,-0.177 23.615,6.299 34.308,10.165 18.978,-19.53 14.21,-60.356 0.064,-81.159 -9.096,-13.374 -22.572,-23.538 -42.097,-25.116 -0.495,0.144 -0.81,0.478 -0.804,1.147 -1.536,12.585 -5.742,22.37 -10.491,31.579 5.263,2.25 10.001,4.12 16.147,6.613 4.406,1.79 13.741,3.793 14.943,8.137 z m 4.868,39.701 c -1.567,-0.812 -0.951,-2.682 -0.661,-3.939 1.062,-1.116 6.394,-1.144 9.585,-1.673 -0.235,-2.605 -0.438,-5.211 -1.314,-7.888 -2.89,0.31 -7.806,2.569 -8.673,0.955 -1.752,-3.261 5.953,-5.224 9.311,-6.013 3.864,-0.904 11.108,-3.553 11.807,0.118 0.591,3.104 -6.864,3.228 -9.834,3.853 0.339,2.352 0.66,7.313 1.1,9.004 0.946,0.189 9.491,-2.979 10.877,2.303 1.213,4.625 -15.757,6.611 -22.198,3.28 z m 19.736,-25.634 c -2.215,0.554 -1.748,-5.154 -2.016,-5.441 -3.996,1.582 -13.313,4.256 -18.627,3.94 -1.336,-0.08 -1.299,-2.847 -0.456,-3.074 5.181,-1.394 12.163,-3.476 18.08,-4.355 0.336,-1.734 -2.197,-6.413 -0.016,-6.369 4.584,0.091 7.46,14.194 3.035,15.299 z m -2.896,-24.181 c 0.796,0.238 1.218,2.117 0.808,2.473 -4.011,3.481 -17.631,9.187 -18.889,7.975 -2.502,-2.411 4.721,-5.32 7.74,-6.813 3.377,-1.668 7.947,-4.349 10.341,-3.635 z m -9.023,-13.958 c 2.508,3.676 -8.474,20.622 -13.078,17.394 -1.464,-1.026 0.888,-2.489 1.531,-3.713 -0.656,-0.444 -4.43,-4.945 -4.43,-4.945 -1.087,-1.065 -2.529,1.083 -3.718,0.966 -0.945,0.032 -1.946,-1.185 -1.318,-1.957 3.551,-4.367 19.48,-9.992 21.013,-7.745 z m -29.384,4.746 c -0.82,-0.4 -1.347,-1.956 -1.025,-3.074 1.496,-5.233 10.089,-18.314 13.851,-16.506 3.206,1.541 8.553,4.771 5.695,8.153 -1.953,-0.98 -3.93,-3.093 -5.867,-3.455 -1.917,1.688 -2.9,3.361 -4.311,5.05 0.724,1.406 4.071,2.422 2.841,3.804 -1.058,1.188 -3.14,-0.445 -4.715,-1.282 -1.87,2.292 -4.386,5.92 -6.469,7.31 z"
   id="path410" />
			<path
   style="fill:#dd608c;fill-opacity:1"
   fill="#ec008c"
   d="m 123.796,412.563 c -2.959,-3.014 -5.26,-9.563 -1.607,-13.631 -5.131,-1.813 -7.981,-5.799 -12.222,-8.46 -13.281,4.477 -12.39,28.677 1.148,32.257 2.589,-5.112 7.114,-8.182 12.681,-10.166 z"
   id="path412" />
		</g>
	</g><g
     style="fill:#439e98;fill-opacity:1"
     transform="translate(388.30326,-10.203425)"
     id="g502">
		<g
   style="fill:#439e98;fill-opacity:1"
   id="g466">
			<path
   style="fill:#439e98;fill-opacity:1"
   fill="#00a79d"
   d="m 374.138,165.937 c 5.574,11.535 14.808,23.995 20.944,32.354 -4.403,-13.407 -6.823,-27.862 -12.981,-40.316 -0.908,-1.838 -4.905,-10.053 -8.699,-9.534 -6.301,0.861 -0.638,14.656 0.736,17.496 z"
   id="path418" />
			<path
   style="fill:#439e98;fill-opacity:1"
   fill="#00a79d"
   d="m 438.125,137.998 c -2.861,-0.59 -7.659,7.485 -9.188,10.261 -7.133,12.952 -10.423,31.438 -12.463,48.624 6.542,-14.37 21.764,-30.262 24.112,-48.729 0.54,-4.216 0.109,-9.623 -2.461,-10.156 z"
   id="path420" />
			<path
   style="fill:#439e98;fill-opacity:1"
   fill="#00a79d"
   d="m 209.176,210.015 c -4.506,6.368 3.147,16.737 6.845,21.527 8.479,10.988 19.261,17.775 31.251,24.073 6.347,3.332 12.485,6.701 18.426,8.605 -8.465,-15.885 -21.716,-33.661 -36.555,-45.169 -5.656,-4.389 -13.27,-10.657 -19.967,-9.036 z"
   id="path422" />
			<path
   style="fill:#439e98;fill-opacity:1"
   fill="#00a79d"
   d="m 254.117,214.235 c -3.303,-9.835 -7.205,-20.76 -17.296,-22.952 -1.762,19.222 9.507,33.368 17.92,44.711 3.068,4.132 4.904,8.859 8.647,11.577 0.001,-0.033 -0.006,-0.06 0.004,-0.102 -3.35,-9.95 -5.647,-22.43 -9.275,-33.234 z"
   id="path424" />
			<path
   style="fill:#439e98;fill-opacity:1"
   fill="#00a79d"
   d="m 591.092,233.803 c 4.066,-5.224 9.45,-11.343 8.625,-19.201 -6.756,-4.019 -17.109,2.725 -21.901,6.451 -14.378,11.179 -24.95,33.081 -32.685,49.677 17.703,-8.584 33.851,-21.364 45.961,-36.927 z"
   id="path426" />
			<path
   style="fill:#439e98;fill-opacity:1"
   fill="#00a79d"
   d="m 206.919,254.228 c 12.078,5.616 27.514,7.934 41.685,10.355 -4.842,-3.722 -12.003,-6.932 -18.77,-10.566 -6.857,-3.679 -13.823,-7.603 -19.958,-9.42 -4.184,-1.242 -11.102,-2.48 -11.695,1.655 -0.586,4.123 5.886,6.652 8.738,7.976 z"
   id="path428" />
			<path
   style="fill:#439e98;fill-opacity:1"
   fill="#00a79d"
   d="m 258.797,544.041 c -10.956,7.178 -23.986,13.582 -33.576,22.859 -4.479,4.332 -8.493,9.734 -12.399,14.836 -3.92,5.115 -9.045,10.84 -8.613,18.426 7.58,4.125 14.942,-1.412 19.928,-4.941 16.601,-11.77 25.827,-32.246 35.024,-50.395 -0.077,-0.308 0.012,-0.767 -0.364,-0.785 z"
   id="path430" />
			<path
   style="fill:#439e98;fill-opacity:1"
   fill="#00a79d"
   d="m 540.534,567.301 c 1.865,4.318 3.567,10.939 5.024,16.818 2.797,11.283 5.376,21.627 10.52,30.162 2.454,4.076 5.427,9.354 11.409,9.6 1.525,-12.471 -3.988,-23.016 -8.919,-32.064 -5.041,-9.258 -12.046,-17.633 -18.034,-24.516 z"
   id="path432" />
			<path
   style="fill:#439e98;fill-opacity:1"
   fill="#00a79d"
   d="m 597.784,560.555 c -12.576,-5.963 -28.685,-7.236 -42.846,-10.377 -0.235,0.016 -0.464,0.047 -0.4,0.383 12.517,5.74 23.167,13.807 37.206,18.781 2.511,0.887 13.198,4.332 14.367,-0.039 1.027,-3.826 -5.88,-7.59 -8.327,-8.748 z"
   id="path434" />
			<path
   style="fill:#439e98;fill-opacity:1"
   fill="#00a79d"
   d="m 595.132,605.148 c 3.215,-7.965 -1.835,-14.861 -5.333,-19.938 -11.519,-16.709 -32.565,-25.578 -50.788,-34.65 -0.016,-0.234 -0.053,-0.455 -0.383,-0.393 -0.026,0.533 0.165,0.852 0.363,1.168 9.77,17.529 21.229,33.771 36.929,45.572 5.139,3.859 11.478,8.892 19.212,8.241 z"
   id="path436" />
			<path
   style="fill:#439e98;fill-opacity:1"
   fill="#00a79d"
   d="m 217.521,564.381 c 9.088,-5.064 16.562,-12.471 24.898,-17.639 0.098,-0.482 0.625,-0.775 -0.373,-0.785 -6.901,2.977 -16.81,4.668 -25.414,7.139 -8.246,2.367 -16.737,4.877 -22.742,8.76 -3.473,2.242 -8.049,5.938 -8.041,11.063 12.398,1.104 22.86,-3.63 31.672,-8.538 z"
   id="path438" />
			<path
   style="fill:#439e98;fill-opacity:1"
   fill="#00a79d"
   d="m 239.989,597.939 c -1.172,3.404 -3.77,12.551 0.44,13.602 4.211,1.053 7.061,-5.982 8.374,-8.721 5.743,-11.996 7.836,-27.564 10.348,-41.682 -0.015,-0.244 -0.045,-0.467 -0.382,-0.404 -5.312,11.02 -14.141,23.731 -18.78,37.205 z"
   id="path440" />
			<path
   style="fill:#439e98;fill-opacity:1"
   fill="#00a79d"
   d="m 411.948,144.343 c -0.879,-4.265 -2.844,-12.87 -7.056,-12.988 -6.196,-0.174 -9.696,14.711 -10.212,20.33 -2.114,23.029 7.128,44.045 12.146,58.551 5.745,-18.171 9.514,-44.533 5.122,-65.893 z"
   id="path442" />
			<path
   style="fill:#439e98;fill-opacity:1"
   fill="#00a79d"
   d="m 586.786,250.783 c -9.044,5.046 -16.913,12.036 -24.897,17.641 -0.235,0.015 -0.464,0.045 -0.4,0.382 9.051,-2.695 22.673,-5.692 33.626,-9.272 9.538,-3.111 21.069,-7.077 23.337,-17.289 -12.594,-1.557 -22.873,3.643 -31.666,8.538 z"
   id="path444" />
			<path
   style="fill:#439e98;fill-opacity:1"
   fill="#00a79d"
   d="m 678.378,410.316 c 0.343,-7.219 -19.877,-10.65 -26.523,-10.75 -20.774,-0.305 -37.249,7.811 -52.74,12.684 18.444,5.572 44.374,9.516 65.891,5.119 4.199,-0.857 13.183,-2.892 13.372,-7.053 z"
   id="path446" />
			<path
   style="fill:#439e98;fill-opacity:1"
   fill="#00a79d"
   d="m 671.745,443.166 c 0.434,-3.451 -8.432,-7.436 -11.046,-8.816 -12.853,-6.832 -31.508,-11.342 -48.241,-12.068 16.267,6.381 30.393,21.645 49.512,23.748 4.196,0.458 9.437,-0.147 9.775,-2.864 z"
   id="path448" />
			<path
   style="fill:#439e98;fill-opacity:1"
   fill="#00a79d"
   d="m 563.872,203.622 c -3.528,-0.977 -6.986,4.69 -7.918,6.405 -5.809,10.636 -7.9,29.634 -11.187,43.991 -0.103,0.661 0.416,0.973 0.39,0.01 6.414,-11.523 13.872,-22.63 18.761,-36.422 0.865,-2.449 4.401,-12.757 -0.046,-13.984 z"
   id="path450" />
			<path
   style="fill:#439e98;fill-opacity:1"
   fill="#00a79d"
   d="m 650.476,376.623 c -13.777,3.854 -27.391,16.269 -39.034,23.891 13.359,-4.184 28.155,-7.358 40.327,-13.372 2.147,-1.058 10.614,-4.58 9.159,-9.093 -0.833,-2.585 -7.182,-2.342 -10.452,-1.426 z"
   id="path452" />
			<path
   style="fill:#439e98;fill-opacity:1"
   fill="#00a79d"
   d="m 397.483,604.93 c -2.172,11.82 -7.177,23.068 -7.58,39.426 -0.172,6.973 0.742,16.064 1.779,22.568 0.842,5.305 2.639,16.805 7.734,16.887 2.867,0.049 5.841,-5.018 7.196,-8.367 10.022,-24.727 -3.569,-51.502 -8.757,-70.111 -0.014,-0.237 -0.043,-0.466 -0.372,-0.403 z"
   id="path454" />
			<path
   style="fill:#439e98;fill-opacity:1"
   fill="#00a79d"
   d="m 190.694,392.462 c -14.412,-6.271 -30.128,-21.411 -47.965,-23.316 -2.044,-0.221 -4.588,-0.419 -6.211,-0.153 -8.356,1.389 -0.826,7.241 2.488,9.381 13.721,8.859 32.455,12.803 51.688,14.088 z"
   id="path456" />
			<path
   style="fill:#439e98;fill-opacity:1"
   fill="#00a79d"
   d="m 431.301,666.342 c 2.307,-0.576 2.701,-4.695 2.144,-8.098 -1.17,-7.135 -6.285,-14.494 -10.73,-21.623 -4.505,-7.238 -9.409,-14.74 -13.487,-19.746 3.551,12.189 7.458,28.717 13.372,40.326 1.349,2.647 4.431,10.219 8.701,9.141 z"
   id="path458" />
			<path
   style="fill:#439e98;fill-opacity:1"
   fill="#00a79d"
   d="m 366.183,677.166 c 2.163,0.375 5.072,-4.445 6.375,-6.441 9.094,-13.994 12.939,-31.305 14.865,-51.67 -0.016,-0.242 -0.045,-0.463 -0.375,-0.4 -5.937,14.143 -21.336,30.559 -23.324,47.965 -0.528,4.634 -0.057,10.109 2.459,10.546 z"
   id="path460" />
			<path
   style="fill:#439e98;fill-opacity:1"
   fill="#00a79d"
   d="m 151.489,438.875 c 12.312,-2.387 27.598,-14.262 37.022,-20.836 1.68,-1.176 3.819,-2.504 3.579,-3.408 -0.135,-0.004 -0.264,-0.006 -0.392,-0.01 -8.549,2.822 -18.148,5.256 -27.001,8.27 -8.501,2.902 -18.573,5.701 -21.699,13.832 1.706,2.47 5.071,2.816 8.491,2.152 z"
   id="path462" />
			<path
   style="fill:#439e98;fill-opacity:1"
   fill="#00a79d"
   d="m 141.255,397.459 c -4.962,0.889 -15.204,2.166 -15.333,7.389 -0.15,6.375 15.41,9.678 21.106,10.225 11.492,1.109 21.912,-1.076 31.155,-3.504 9.524,-2.492 18.613,-5.307 26.245,-9.055 -18.423,-5.518 -42.185,-8.809 -63.173,-5.055 z"
   id="path464" />
		</g>
		<g
   style="fill:#439e98;fill-opacity:1"
   id="g500">
			<path
   style="fill:#439e98;fill-opacity:1"
   fill="#00a79d"
   d="m 704.087,360.083 c 6.283,0.966 12.262,2.224 18.16,3.551 8.541,-10.646 16.434,12.317 4.402,10.596 -2.761,-0.397 -3.624,-2.646 -4.921,-5.17 -6.703,-1.333 -12.938,-3.102 -20.093,-3.991 13.029,10.965 25.795,22.187 38.395,33.569 14.463,-25.289 -2.88,-57.896 -23.25,-65.041 5.222,12.532 -4.327,22.136 -12.693,26.486 z"
   id="path468" />
			<path
   style="fill:#439e98;fill-opacity:1"
   fill="#00a79d"
   d="m 222.672,654.596 c -5.824,2.91 -10.114,7.426 -16.167,10.088 0.318,4.43 -1.313,6.475 -4.057,6.893 -10.397,1.566 -10.928,-16.189 0.268,-10.873 4.482,-2.182 9.484,-5.803 13.419,-8.596 1.196,-0.854 3.861,-1.549 3.179,-3.025 -15.812,1.967 -32.773,2.723 -49.793,3.428 4.627,17.6 20.578,30.758 41.521,32.869 7.23,0.727 15.915,-0.092 20.675,-3.762 -10.353,-1.979 -13.776,-16.452 -9.045,-27.022 z"
   id="path470" />
			<path
   style="fill:#439e98;fill-opacity:1"
   fill="#00a79d"
   d="m 100.623,454.707 c -6.722,-0.557 -12.75,-1.76 -18.167,-3.559 -2.621,1.174 -2.702,3.037 -6.278,2.564 -7.501,-0.982 -6.096,-14.924 2.258,-12.76 2.454,0.637 2.103,2.795 4.539,4.775 6.041,1.574 13.249,4.064 20.108,3.6 -14.238,-9.818 -26.195,-21.803 -38.793,-33.186 -15.12,23.854 3.049,58.539 23.24,65.424 -5.556,-12.879 4.46,-22.686 13.093,-26.858 z"
   id="path472" />
			<path
   style="fill:#439e98;fill-opacity:1"
   fill="#00a79d"
   d="m 135.333,228 c 5.582,-2.902 13.309,-2.675 19.804,0.104 -3.294,-5.585 -7.251,-10.53 -10.472,-16.184 -5.419,0.349 -6.829,-2.832 -6.862,-5.218 -0.132,-10.263 16.836,-8.647 11.218,1.829 3.693,5.83 6.928,12.103 11.62,16.989 -2.019,-16.025 -2.994,-33.029 -3.416,-50.568 -0.256,-0.006 -0.512,-0.013 -0.775,-0.019 -0.128,-0.003 -0.255,-0.006 -0.384,-0.01 -22.043,5.565 -38.493,35.431 -29.107,62.189 2.722,-3.086 4.076,-6.876 8.374,-9.112 z"
   id="path474" />
			<path
   style="fill:#439e98;fill-opacity:1"
   fill="#00a79d"
   d="m 147.182,613.514 c 6.265,12.121 -13.382,12.592 -12.092,2.422 0.434,-3.449 3.976,-4.758 7.486,-4.479 3.232,-8.678 7.631,-16.137 11.093,-24.58 -15.958,7.096 -31.313,-4.24 -32.927,-19.059 -0.033,0.498 -0.511,0.521 -0.419,1.148 -7.391,20.543 -0.604,43.266 9.112,55.758 8.143,10.473 19.677,17.35 33.263,21.016 -2.47,-18.484 -1.855,-39.912 -2.394,-60.252 -4.43,9.282 -8.485,18.963 -13.122,28.026 z"
   id="path476" />
			<path
   style="fill:#439e98;fill-opacity:1"
   fill="#00a79d"
   d="m 100.049,367.708 c 1.75,-1.673 4.78,-3.285 4.394,-4.946 -9.673,3.378 -19.111,7.004 -28.61,10.557 -1.109,3.71 -3.237,5.381 -5.955,5.293 -7.035,-0.238 -9.198,-14.118 -0.44,-13.602 2.218,0.132 2.714,1.669 4.586,2.833 8.597,-3.048 17.645,-5.624 25.479,-9.474 -14.047,-2.005 -19.917,-24.983 -9.61,-35.571 -0.031,-0.477 -0.091,-0.92 -0.756,-0.794 -18.088,9.414 -35.288,28.775 -33.655,57.805 0.588,10.487 4.353,19.215 9.047,26.629 10.889,-13.152 23.38,-27.146 35.52,-38.73 z"
   id="path478" />
			<path
   style="fill:#439e98;fill-opacity:1"
   fill="#00a79d"
   d="m 354.651,105.653 c 0.984,-6.405 2.349,-12.402 3.569,-18.558 -10.982,-8.529 13.161,-16.121 10.569,-3.619 -0.51,2.458 -2.904,3.125 -5.16,4.536 -1.43,6.593 -2.985,13.054 -3.992,20.092 10.896,-13.108 22.174,-25.816 33.568,-38.393 -24.479,-14.315 -57.941,2.167 -65.032,23.25 12.495,-5.494 22.473,4.192 26.478,12.692 z"
   id="path480" />
			<path
   style="fill:#439e98;fill-opacity:1"
   fill="#00a79d"
   d="m 195.443,152.593 c -11.12,6.632 -12.124,-13.583 -1.639,-12.079 2.363,0.344 4.542,2.077 4.098,7.092 8.36,3.66 16.312,7.715 24.563,11.478 -6.583,-16.594 4.519,-31.391 19.457,-32.917 -7.051,-3.071 -17.713,-4.616 -27.105,-3.381 -26.312,3.452 -45.077,21.5 -50.818,45.343 18.402,-2.565 39.894,-1.885 60.247,-2.395 -9.626,-4.359 -19.119,-8.837 -28.803,-13.141 z"
   id="path482" />
			<path
   style="fill:#439e98;fill-opacity:1"
   fill="#00a79d"
   d="m 580.064,649.438 c 9.785,4.199 19.293,8.662 28.801,13.133 1.678,-1.047 2.646,-1.914 5.084,-1.426 9.173,1.842 1.4,17.926 -6.134,12.273 -1.692,-1.268 -1.372,-3.559 -1.783,-6.254 -8.46,-3.07 -16.417,-8.627 -24.589,-10.707 7.781,15.291 -4.84,30.799 -19.058,32.541 31.187,11.385 61.388,-6.559 72.525,-27.729 2.308,-4.371 4.877,-9.27 4.623,-14.252 -18.243,2.469 -39.719,1.534 -59.469,2.421 z"
   id="path484" />
			<path
   style="fill:#439e98;fill-opacity:1"
   fill="#00a79d"
   d="m 676.186,578.023 c -2.298,10.352 -16.229,13.461 -27.014,9.043 2.611,4.707 7.457,10.588 10.473,16.178 10.492,-1.371 6.697,13.92 -1.473,12.387 -3.722,-0.697 -4.982,-5.539 -2.873,-9.389 -3.987,-5.424 -6.854,-11.916 -11.63,-16.598 1.897,16.008 2.811,32.953 3.419,50.184 23.419,-4.17 39.331,-35.332 30.265,-61.775 -0.391,-0.01 -0.776,-0.02 -1.167,-0.03 z"
   id="path486" />
			<path
   style="fill:#439e98;fill-opacity:1"
   fill="#00a79d"
   d="m 739.389,408.717 c -11.112,14.678 -25.695,28.678 -38.298,41.381 -0.519,0.521 -2.417,1.016 -1.609,2.295 9.733,-3.176 18.473,-7.396 28.594,-10.172 1.541,-3.572 2.464,-5.521 5.58,-5.688 7.292,-0.375 10.016,12.742 2.001,13.256 -3.059,0.195 -3.639,-1.129 -5.361,-2.852 -8.261,3.535 -18.041,5.471 -25.49,9.859 14.771,2.172 19.438,25.652 9.199,36.334 19.969,-8.881 38.935,-32.279 34.182,-63.229 -1.19,-7.77 -4.595,-14.012 -7.64,-20.766 -0.498,-0.031 -0.53,-0.508 -1.158,-0.418 z"
   id="path488" />
			<path
   style="fill:#439e98;fill-opacity:1"
   fill="#00a79d"
   d="m 446.942,111.034 c -2.58,-10.558 -7.377,-19 -10.147,-29.376 -3.676,-1.671 -5.762,-3.06 -5.667,-6.354 0.201,-7.242 13.858,-9.348 13.212,-0.45 -0.208,2.921 -1.637,2.53 -2.843,4.978 3.77,7.917 5.652,17.618 9.867,25.097 2.256,-9.505 12.231,-16.186 23.67,-14.95 5.354,0.581 8.934,3.538 12.692,4.977 -7.956,-15.987 -24.162,-31.487 -46.931,-33.779 -15.275,-1.538 -27.93,2.337 -37.5,8.786 15.753,12.546 29.739,26.774 43.647,41.071 z"
   id="path490" />
			<path
   style="fill:#439e98;fill-opacity:1"
   fill="#00a79d"
   d="m 357.366,704.131 c -0.234,0.016 -0.463,0.045 -0.4,0.381 3.52,9.664 7.42,18.957 10.547,28.996 3.653,1.42 5.699,2.758 5.678,5.963 -0.055,7.41 -13.941,9.268 -13.611,0.83 0.074,-1.834 2.672,-3.279 2.852,-5.367 0.27,-3.141 -3.54,-9.18 -4.738,-12.541 -1.752,-4.92 -2.578,-9.189 -4.738,-12.547 -2.215,8.973 -11.124,15.723 -21.738,15.391 -6.146,-0.195 -10.792,-3.506 -15.009,-5.418 9.625,19.346 32.094,38.133 62.85,33.779 8.345,-1.182 15.452,-4.453 21.95,-8.393 -15.631,-12.66 -29.721,-26.783 -43.643,-41.074 z"
   id="path492" />
			<path
   style="fill:#439e98;fill-opacity:1"
   fill="#00a79d"
   d="m 454.52,717.014 c -2.284,-2.646 -2.85,-5.979 -5.243,-7.896 -0.468,6.809 -1.815,12.693 -3.553,18.168 11.12,8.084 -10.94,16.924 -10.624,5.561 0.087,-3.266 3.146,-4.059 5.197,-6.088 1.538,-6.084 4.079,-13.232 3.601,-20.102 -9.706,14.221 -22.021,25.699 -32.795,38.797 24.727,14.107 59.087,-3.006 64.657,-23.643 -7.756,4.171 -16.693,0.47 -21.24,-4.797 z"
   id="path494" />
			<path
   style="fill:#439e98;fill-opacity:1"
   fill="#00a79d"
   d="m 657.13,201.259 c -0.742,-2.189 -1.77,-2.45 -1.427,-5.083 1.324,-10.077 18.704,-1.482 12.289,5.742 -1.143,1.289 -2.721,1.478 -6.25,1.397 -3.245,8.663 -7.666,16.101 -11.094,24.58 16.633,-6.688 31.129,4.819 32.918,19.452 12.924,-35.577 -11.613,-72.385 -41.961,-77.925 2.389,18.57 1.688,40.089 2.4,60.253 4.267,-9.59 8.381,-19.328 13.125,-28.416 z"
   id="path496" />
			<path
   style="fill:#439e98;fill-opacity:1"
   fill="#00a79d"
   d="m 582.021,160.578 c 4.992,-3.786 10.226,-7.309 15.793,-10.482 -1.625,-10.015 12.408,-7.49 12.433,-0.085 0.006,4.058 -3.991,6.814 -9.046,4.44 -5.897,3.621 -12.316,6.695 -16.979,11.62 15.819,-2.094 32.751,-3.016 50.176,-3.425 -3.727,-22.397 -34.255,-40.251 -62.169,-29.883 10.569,2.631 13.573,17.093 9.792,27.815 z"
   id="path498" />
		</g>
	</g></g>
</svg>
